<svg id="visual" viewBox="0 0 1920 600" width="1920" height="600" xmlns="http://www.w3.org/2000/svg" xmlns:xlink="http://www.w3.org/1999/xlink" version="1.1"><rect x="0" y="0" width="1920" height="600" fill="#079f56"></rect><defs><linearGradient id="grad1_0" x1="68.8%" y1="100%" x2="100%" y2="0%"><stop offset="-14.000000000000007%" stop-color="#22cd6f" stop-opacity="1"></stop><stop offset="114.00000000000001%" stop-color="#22cd6f" stop-opacity="1"></stop></linearGradient></defs><defs><linearGradient id="grad1_1" x1="68.8%" y1="100%" x2="100%" y2="0%"><stop offset="-14.000000000000007%" stop-color="#22cd6f" stop-opacity="1"></stop><stop offset="114.00000000000001%" stop-color="#15b662" stop-opacity="1"></stop></linearGradient></defs><defs><linearGradient id="grad1_2" x1="68.8%" y1="100%" x2="100%" y2="0%"><stop offset="-14.000000000000007%" stop-color="#079f56" stop-opacity="1"></stop><stop offset="114.00000000000001%" stop-color="#15b662" stop-opacity="1"></stop></linearGradient></defs><defs><linearGradient id="grad2_0" x1="0%" y1="100%" x2="31.3%" y2="0%"><stop offset="-14.000000000000007%" stop-color="#22cd6f" stop-opacity="1"></stop><stop offset="114.00000000000001%" stop-color="#22cd6f" stop-opacity="1"></stop></linearGradient></defs><defs><linearGradient id="grad2_1" x1="0%" y1="100%" x2="31.3%" y2="0%"><stop offset="-14.000000000000007%" stop-color="#15b662" stop-opacity="1"></stop><stop offset="114.00000000000001%" stop-color="#22cd6f" stop-opacity="1"></stop></linearGradient></defs><defs><linearGradient id="grad2_2" x1="0%" y1="100%" x2="31.3%" y2="0%"><stop offset="-14.000000000000007%" stop-color="#15b662" stop-opacity="1"></stop><stop offset="114.00000000000001%" stop-color="#079f56" stop-opacity="1"></stop></linearGradient></defs><g transform="translate(1920, 600)"><path d="M-270 0C-268.7 -29 -267.5 -58 -256.8 -83.4C-246.1 -108.9 -225.9 -130.9 -204.7 -148.7C-183.4 -166.5 -161.1 -180.2 -139.3 -191.7C-117.5 -203.3 -96.4 -212.7 -73.2 -225.4C-50.1 -238.1 -25.1 -254 0 -270L0 0Z" fill="#0eaa5c"></path><path d="M-180 0C-179.2 -19.3 -178.3 -38.6 -171.2 -55.6C-164.1 -72.6 -150.6 -87.3 -136.5 -99.1C-122.3 -111 -107.4 -120.1 -92.9 -127.8C-78.4 -135.5 -64.2 -141.8 -48.8 -150.3C-33.4 -158.7 -16.7 -169.4 0 -180L0 0Z" fill="#1cc169"></path><path d="M-90 0C-89.6 -9.7 -89.2 -19.3 -85.6 -27.8C-82 -36.3 -75.3 -43.6 -68.2 -49.6C-61.1 -55.5 -53.7 -60.1 -46.4 -63.9C-39.2 -67.8 -32.1 -70.9 -24.4 -75.1C-16.7 -79.4 -8.4 -84.7 0 -90L0 0Z" fill="#22cd6f"></path></g><g transform="translate(0, 0)"><path d="M270 0C254.2 25.4 238.3 50.8 225.4 73.2C212.5 95.7 202.4 115.2 193.4 140.5C184.3 165.7 176.3 196.6 158.1 217.6C139.9 238.6 111.5 249.7 83.4 256.8C55.4 263.9 27.7 266.9 0 270L0 0Z" fill="#0eaa5c"></path><path d="M180 0C169.4 16.9 158.9 33.8 150.3 48.8C141.6 63.8 134.9 76.8 128.9 93.7C122.9 110.5 117.5 131.1 105.4 145.1C93.3 159.1 74.3 166.5 55.6 171.2C36.9 175.9 18.5 178 0 180L0 0Z" fill="#1cc169"></path><path d="M90 0C84.7 8.5 79.4 16.9 75.1 24.4C70.8 31.9 67.5 38.4 64.5 46.8C61.4 55.2 58.8 65.5 52.7 72.5C46.6 79.5 37.2 83.2 27.8 85.6C18.5 88 9.2 89 0 90L0 0Z" fill="#22cd6f"></path></g></svg>