<svg id="visual" viewBox="0 0 1920 1000" width="1920" height="1000" xmlns="http://www.w3.org/2000/svg" xmlns:xlink="http://www.w3.org/1999/xlink" version="1.1"><g><g transform="translate(536 838)"><path d="M0 -24.7L19.3 -15.4L24.1 5.5L10.7 22.3L-10.7 22.3L-24.1 5.5L-19.3 -15.4Z" fill="none" stroke="#079f56" stroke-width="2"></path></g><g transform="translate(1899 270)"><path d="M0 -20L15.6 -12.5L19.5 4.5L8.7 18L-8.7 18L-19.5 4.5L-15.6 -12.5Z" fill="none" stroke="#079f56" stroke-width="2"></path></g><g transform="translate(1632 918)"><path d="M0 -20L15.6 -12.5L19.5 4.5L8.7 18L-8.7 18L-19.5 4.5L-15.6 -12.5Z" fill="none" stroke="#079f56" stroke-width="2"></path></g><g transform="translate(897 45)"><path d="M0 -23L18 -14.3L22.4 5.1L10 20.7L-10 20.7L-22.4 5.1L-18 -14.3Z" fill="none" stroke="#079f56" stroke-width="2"></path></g><g transform="translate(485 965)"><path d="M0 -19L14.9 -11.8L18.5 4.2L8.2 17.1L-8.2 17.1L-18.5 4.2L-14.9 -11.8Z" fill="none" stroke="#079f56" stroke-width="2"></path></g><g transform="translate(1644 966)"><path d="M0 -18L14.1 -11.2L17.5 4L7.8 16.2L-7.8 16.2L-17.5 4L-14.1 -11.2Z" fill="none" stroke="#079f56" stroke-width="2"></path></g><g transform="translate(1859 367)"><path d="M0 -23L18 -14.3L22.4 5.1L10 20.7L-10 20.7L-22.4 5.1L-18 -14.3Z" fill="none" stroke="#079f56" stroke-width="2"></path></g><g transform="translate(797 461)"><path d="M0 -21L16.4 -13.1L20.5 4.7L9.1 18.9L-9.1 18.9L-20.5 4.7L-16.4 -13.1Z" fill="none" stroke="#079f56" stroke-width="2"></path></g><g transform="translate(534 264)"><path d="M0 -21L16.4 -13.1L20.5 4.7L9.1 18.9L-9.1 18.9L-20.5 4.7L-16.4 -13.1Z" fill="none" stroke="#079f56" stroke-width="2"></path></g><g transform="translate(148 888)"><path d="M0 -18L14.1 -11.2L17.5 4L7.8 16.2L-7.8 16.2L-17.5 4L-14.1 -11.2Z" fill="none" stroke="#079f56" stroke-width="2"></path></g><g transform="translate(899 371)"><path d="M0 -18L14.1 -11.2L17.5 4L7.8 16.2L-7.8 16.2L-17.5 4L-14.1 -11.2Z" fill="none" stroke="#079f56" stroke-width="2"></path></g><g transform="translate(1074 739)"><path d="M0 -23L18 -14.3L22.4 5.1L10 20.7L-10 20.7L-22.4 5.1L-18 -14.3Z" fill="none" stroke="#079f56" stroke-width="2"></path></g><g transform="translate(122 759)"><path d="M0 -20L15.6 -12.5L19.5 4.5L8.7 18L-8.7 18L-19.5 4.5L-15.6 -12.5Z" fill="none" stroke="#079f56" stroke-width="2"></path></g><g transform="translate(427 683)"><path d="M0 -18L14.1 -11.2L17.5 4L7.8 16.2L-7.8 16.2L-17.5 4L-14.1 -11.2Z" fill="none" stroke="#079f56" stroke-width="2"></path></g><g transform="translate(1717 356)"><path d="M0 -19L14.9 -11.8L18.5 4.2L8.2 17.1L-8.2 17.1L-18.5 4.2L-14.9 -11.8Z" fill="none" stroke="#079f56" stroke-width="2"></path></g><g transform="translate(1829 472)"><path d="M0 -23L18 -14.3L22.4 5.1L10 20.7L-10 20.7L-22.4 5.1L-18 -14.3Z" fill="none" stroke="#079f56" stroke-width="2"></path></g><g transform="translate(1842 529)"><path d="M0 -20L15.6 -12.5L19.5 4.5L8.7 18L-8.7 18L-19.5 4.5L-15.6 -12.5Z" fill="none" stroke="#079f56" stroke-width="2"></path></g><g transform="translate(1045 203)"><path d="M0 -21L16.4 -13.1L20.5 4.7L9.1 18.9L-9.1 18.9L-20.5 4.7L-16.4 -13.1Z" fill="none" stroke="#079f56" stroke-width="2"></path></g><g transform="translate(1404 417)"><path d="M0 -22L17.2 -13.7L21.4 4.9L9.5 19.8L-9.5 19.8L-21.4 4.9L-17.2 -13.7Z" fill="none" stroke="#079f56" stroke-width="2"></path></g><g transform="translate(490 222)"><path d="M0 -22L17.2 -13.7L21.4 4.9L9.5 19.8L-9.5 19.8L-21.4 4.9L-17.2 -13.7Z" fill="none" stroke="#079f56" stroke-width="2"></path></g><g transform="translate(31 934)"><path d="M0 -22L17.2 -13.7L21.4 4.9L9.5 19.8L-9.5 19.8L-21.4 4.9L-17.2 -13.7Z" fill="none" stroke="#079f56" stroke-width="2"></path></g><g transform="translate(256 685)"><path d="M0 -22L17.2 -13.7L21.4 4.9L9.5 19.8L-9.5 19.8L-21.4 4.9L-17.2 -13.7Z" fill="none" stroke="#079f56" stroke-width="2"></path></g><g transform="translate(922 509)"><path d="M0 -20L15.6 -12.5L19.5 4.5L8.7 18L-8.7 18L-19.5 4.5L-15.6 -12.5Z" fill="none" stroke="#079f56" stroke-width="2"></path></g><g transform="translate(1299 825)"><path d="M0 -22L17.2 -13.7L21.4 4.9L9.5 19.8L-9.5 19.8L-21.4 4.9L-17.2 -13.7Z" fill="none" stroke="#079f56" stroke-width="2"></path></g><g transform="translate(778 755)"><path d="M0 -19L14.9 -11.8L18.5 4.2L8.2 17.1L-8.2 17.1L-18.5 4.2L-14.9 -11.8Z" fill="none" stroke="#079f56" stroke-width="2"></path></g><g transform="translate(1318 26)"><path d="M0 -20L15.6 -12.5L19.5 4.5L8.7 18L-8.7 18L-19.5 4.5L-15.6 -12.5Z" fill="none" stroke="#079f56" stroke-width="2"></path></g><g transform="translate(254 958)"><path d="M0 -20L15.6 -12.5L19.5 4.5L8.7 18L-8.7 18L-19.5 4.5L-15.6 -12.5Z" fill="none" stroke="#079f56" stroke-width="2"></path></g><g transform="translate(1683 53)"><path d="M0 -21L16.4 -13.1L20.5 4.7L9.1 18.9L-9.1 18.9L-20.5 4.7L-16.4 -13.1Z" fill="none" stroke="#079f56" stroke-width="2"></path></g><g transform="translate(719 660)"><path d="M0 -22L17.2 -13.7L21.4 4.9L9.5 19.8L-9.5 19.8L-21.4 4.9L-17.2 -13.7Z" fill="none" stroke="#079f56" stroke-width="2"></path></g><g transform="translate(300 386)"><path d="M0 -21L16.4 -13.1L20.5 4.7L9.1 18.9L-9.1 18.9L-20.5 4.7L-16.4 -13.1Z" fill="none" stroke="#079f56" stroke-width="2"></path></g><g transform="translate(1070 41)"><path d="M0 -21L16.4 -13.1L20.5 4.7L9.1 18.9L-9.1 18.9L-20.5 4.7L-16.4 -13.1Z" fill="none" stroke="#079f56" stroke-width="2"></path></g><g transform="translate(733 843)"><path d="M0 -23L18 -14.3L22.4 5.1L10 20.7L-10 20.7L-22.4 5.1L-18 -14.3Z" fill="none" stroke="#079f56" stroke-width="2"></path></g><g transform="translate(1780 400)"><path d="M0 -20L15.6 -12.5L19.5 4.5L8.7 18L-8.7 18L-19.5 4.5L-15.6 -12.5Z" fill="none" stroke="#079f56" stroke-width="2"></path></g><g transform="translate(691 804)"><path d="M0 -22L17.2 -13.7L21.4 4.9L9.5 19.8L-9.5 19.8L-21.4 4.9L-17.2 -13.7Z" fill="none" stroke="#079f56" stroke-width="2"></path></g><g transform="translate(1460 212)"><path d="M0 -23L18 -14.3L22.4 5.1L10 20.7L-10 20.7L-22.4 5.1L-18 -14.3Z" fill="none" stroke="#079f56" stroke-width="2"></path></g><g transform="translate(545 423)"><path d="M0 -23L18 -14.3L22.4 5.1L10 20.7L-10 20.7L-22.4 5.1L-18 -14.3Z" fill="none" stroke="#079f56" stroke-width="2"></path></g><g transform="translate(484 798)"><path d="M0 -21L16.4 -13.1L20.5 4.7L9.1 18.9L-9.1 18.9L-20.5 4.7L-16.4 -13.1Z" fill="none" stroke="#079f56" stroke-width="2"></path></g><g transform="translate(1000 976)"><path d="M0 -18L14.1 -11.2L17.5 4L7.8 16.2L-7.8 16.2L-17.5 4L-14.1 -11.2Z" fill="none" stroke="#079f56" stroke-width="2"></path></g><g transform="translate(146 629)"><path d="M0 -21L16.4 -13.1L20.5 4.7L9.1 18.9L-9.1 18.9L-20.5 4.7L-16.4 -13.1Z" fill="none" stroke="#079f56" stroke-width="2"></path></g><g transform="translate(1718 755)"><path d="M0 -20L15.6 -12.5L19.5 4.5L8.7 18L-8.7 18L-19.5 4.5L-15.6 -12.5Z" fill="none" stroke="#079f56" stroke-width="2"></path></g><g transform="translate(1721 512)"><path d="M0 -20L15.6 -12.5L19.5 4.5L8.7 18L-8.7 18L-19.5 4.5L-15.6 -12.5Z" fill="none" stroke="#079f56" stroke-width="2"></path></g><g transform="translate(18 137)"><path d="M0 -19L14.9 -11.8L18.5 4.2L8.2 17.1L-8.2 17.1L-18.5 4.2L-14.9 -11.8Z" fill="none" stroke="#079f56" stroke-width="2"></path></g><g transform="translate(400 88)"><path d="M0 -18L14.1 -11.2L17.5 4L7.8 16.2L-7.8 16.2L-17.5 4L-14.1 -11.2Z" fill="none" stroke="#079f56" stroke-width="2"></path></g><g transform="translate(1866 110)"><path d="M0 -20L15.6 -12.5L19.5 4.5L8.7 18L-8.7 18L-19.5 4.5L-15.6 -12.5Z" fill="none" stroke="#079f56" stroke-width="2"></path></g><g transform="translate(493 719)"><path d="M0 -23L18 -14.3L22.4 5.1L10 20.7L-10 20.7L-22.4 5.1L-18 -14.3Z" fill="none" stroke="#079f56" stroke-width="2"></path></g><g transform="translate(471 274)"><path d="M0 -23L18 -14.3L22.4 5.1L10 20.7L-10 20.7L-22.4 5.1L-18 -14.3Z" fill="none" stroke="#079f56" stroke-width="2"></path></g><g transform="translate(1552 122)"><path d="M0 -21L16.4 -13.1L20.5 4.7L9.1 18.9L-9.1 18.9L-20.5 4.7L-16.4 -13.1Z" fill="none" stroke="#079f56" stroke-width="2"></path></g><g transform="translate(400 971)"><path d="M0 -18L14.1 -11.2L17.5 4L7.8 16.2L-7.8 16.2L-17.5 4L-14.1 -11.2Z" fill="none" stroke="#079f56" stroke-width="2"></path></g><g transform="translate(189 492)"><path d="M0 -19L14.9 -11.8L18.5 4.2L8.2 17.1L-8.2 17.1L-18.5 4.2L-14.9 -11.8Z" fill="none" stroke="#079f56" stroke-width="2"></path></g><g transform="translate(1493 695)"><path d="M0 -18L14.1 -11.2L17.5 4L7.8 16.2L-7.8 16.2L-17.5 4L-14.1 -11.2Z" fill="none" stroke="#079f56" stroke-width="2"></path></g><g transform="translate(75 863)"><path d="M0 -22L17.2 -13.7L21.4 4.9L9.5 19.8L-9.5 19.8L-21.4 4.9L-17.2 -13.7Z" fill="none" stroke="#079f56" stroke-width="2"></path></g><g transform="translate(968 403)"><path d="M0 -23L18 -14.3L22.4 5.1L10 20.7L-10 20.7L-22.4 5.1L-18 -14.3Z" fill="none" stroke="#079f56" stroke-width="2"></path></g><g transform="translate(1511 862)"><path d="M0 -20L15.6 -12.5L19.5 4.5L8.7 18L-8.7 18L-19.5 4.5L-15.6 -12.5Z" fill="none" stroke="#079f56" stroke-width="2"></path></g><g transform="translate(346 947)"><path d="M0 -22L17.2 -13.7L21.4 4.9L9.5 19.8L-9.5 19.8L-21.4 4.9L-17.2 -13.7Z" fill="none" stroke="#079f56" stroke-width="2"></path></g><g transform="translate(1083 685)"><path d="M0 -23L18 -14.3L22.4 5.1L10 20.7L-10 20.7L-22.4 5.1L-18 -14.3Z" fill="none" stroke="#079f56" stroke-width="2"></path></g><g transform="translate(1433 749)"><path d="M0 -19L14.9 -11.8L18.5 4.2L8.2 17.1L-8.2 17.1L-18.5 4.2L-14.9 -11.8Z" fill="none" stroke="#079f56" stroke-width="2"></path></g><g transform="translate(100 455)"><path d="M0 -22L17.2 -13.7L21.4 4.9L9.5 19.8L-9.5 19.8L-21.4 4.9L-17.2 -13.7Z" fill="none" stroke="#079f56" stroke-width="2"></path></g><g transform="translate(1632 511)"><path d="M0 -19L14.9 -11.8L18.5 4.2L8.2 17.1L-8.2 17.1L-18.5 4.2L-14.9 -11.8Z" fill="none" stroke="#079f56" stroke-width="2"></path></g><g transform="translate(1104 930)"><path d="M0 -18L14.1 -11.2L17.5 4L7.8 16.2L-7.8 16.2L-17.5 4L-14.1 -11.2Z" fill="none" stroke="#079f56" stroke-width="2"></path></g><g transform="translate(1186 32)"><path d="M0 -21L16.4 -13.1L20.5 4.7L9.1 18.9L-9.1 18.9L-20.5 4.7L-16.4 -13.1Z" fill="none" stroke="#079f56" stroke-width="2"></path></g><g transform="translate(576 705)"><path d="M0 -23L18 -14.3L22.4 5.1L10 20.7L-10 20.7L-22.4 5.1L-18 -14.3Z" fill="none" stroke="#079f56" stroke-width="2"></path></g><g transform="translate(323 553)"><path d="M0 -18L14.1 -11.2L17.5 4L7.8 16.2L-7.8 16.2L-17.5 4L-14.1 -11.2Z" fill="none" stroke="#079f56" stroke-width="2"></path></g><g transform="translate(1492 54)"><path d="M0 -20L15.6 -12.5L19.5 4.5L8.7 18L-8.7 18L-19.5 4.5L-15.6 -12.5Z" fill="none" stroke="#079f56" stroke-width="2"></path></g><g transform="translate(139 344)"><path d="M0 -23L18 -14.3L22.4 5.1L10 20.7L-10 20.7L-22.4 5.1L-18 -14.3Z" fill="none" stroke="#079f56" stroke-width="2"></path></g><g transform="translate(705 580)"><path d="M0 -20L15.6 -12.5L19.5 4.5L8.7 18L-8.7 18L-19.5 4.5L-15.6 -12.5Z" fill="none" stroke="#079f56" stroke-width="2"></path></g><g transform="translate(1579 965)"><path d="M0 -19L14.9 -11.8L18.5 4.2L8.2 17.1L-8.2 17.1L-18.5 4.2L-14.9 -11.8Z" fill="none" stroke="#079f56" stroke-width="2"></path></g><g transform="translate(1537 500)"><path d="M0 -18L14.1 -11.2L17.5 4L7.8 16.2L-7.8 16.2L-17.5 4L-14.1 -11.2Z" fill="none" stroke="#079f56" stroke-width="2"></path></g><g transform="translate(1581 374)"><path d="M0 -19L14.9 -11.8L18.5 4.2L8.2 17.1L-8.2 17.1L-18.5 4.2L-14.9 -11.8Z" fill="none" stroke="#079f56" stroke-width="2"></path></g><g transform="translate(406 577)"><path d="M0 -21L16.4 -13.1L20.5 4.7L9.1 18.9L-9.1 18.9L-20.5 4.7L-16.4 -13.1Z" fill="none" stroke="#079f56" stroke-width="2"></path></g><g transform="translate(119 60)"><path d="M0 -23L18 -14.3L22.4 5.1L10 20.7L-10 20.7L-22.4 5.1L-18 -14.3Z" fill="none" stroke="#079f56" stroke-width="2"></path></g><g transform="translate(1396 967)"><path d="M0 -18L14.1 -11.2L17.5 4L7.8 16.2L-7.8 16.2L-17.5 4L-14.1 -11.2Z" fill="none" stroke="#079f56" stroke-width="2"></path></g><g transform="translate(1159 143)"><path d="M0 -23L18 -14.3L22.4 5.1L10 20.7L-10 20.7L-22.4 5.1L-18 -14.3Z" fill="none" stroke="#079f56" stroke-width="2"></path></g><g transform="translate(1709 875)"><path d="M0 -21L16.4 -13.1L20.5 4.7L9.1 18.9L-9.1 18.9L-20.5 4.7L-16.4 -13.1Z" fill="none" stroke="#079f56" stroke-width="2"></path></g><g transform="translate(1692 302)"><path d="M0 -21L16.4 -13.1L20.5 4.7L9.1 18.9L-9.1 18.9L-20.5 4.7L-16.4 -13.1Z" fill="none" stroke="#079f56" stroke-width="2"></path></g><g transform="translate(416 508)"><path d="M0 -19L14.9 -11.8L18.5 4.2L8.2 17.1L-8.2 17.1L-18.5 4.2L-14.9 -11.8Z" fill="none" stroke="#079f56" stroke-width="2"></path></g><g transform="translate(26 195)"><path d="M0 -21L16.4 -13.1L20.5 4.7L9.1 18.9L-9.1 18.9L-20.5 4.7L-16.4 -13.1Z" fill="none" stroke="#079f56" stroke-width="2"></path></g><g transform="translate(894 616)"><path d="M0 -23L18 -14.3L22.4 5.1L10 20.7L-10 20.7L-22.4 5.1L-18 -14.3Z" fill="none" stroke="#079f56" stroke-width="2"></path></g><g transform="translate(1604 32)"><path d="M0 -21L16.4 -13.1L20.5 4.7L9.1 18.9L-9.1 18.9L-20.5 4.7L-16.4 -13.1Z" fill="none" stroke="#079f56" stroke-width="2"></path></g><g transform="translate(1206 901)"><path d="M0 -19L14.9 -11.8L18.5 4.2L8.2 17.1L-8.2 17.1L-18.5 4.2L-14.9 -11.8Z" fill="none" stroke="#079f56" stroke-width="2"></path></g><g transform="translate(782 107)"><path d="M0 -23L18 -14.3L22.4 5.1L10 20.7L-10 20.7L-22.4 5.1L-18 -14.3Z" fill="none" stroke="#079f56" stroke-width="2"></path></g><g transform="translate(217 563)"><path d="M0 -21L16.4 -13.1L20.5 4.7L9.1 18.9L-9.1 18.9L-20.5 4.7L-16.4 -13.1Z" fill="none" stroke="#079f56" stroke-width="2"></path></g><g transform="translate(1880 901)"><path d="M0 -23L18 -14.3L22.4 5.1L10 20.7L-10 20.7L-22.4 5.1L-18 -14.3Z" fill="none" stroke="#079f56" stroke-width="2"></path></g><g transform="translate(797 532)"><path d="M0 -20L15.6 -12.5L19.5 4.5L8.7 18L-8.7 18L-19.5 4.5L-15.6 -12.5Z" fill="none" stroke="#079f56" stroke-width="2"></path></g><g transform="translate(854 708)"><path d="M0 -19L14.9 -11.8L18.5 4.2L8.2 17.1L-8.2 17.1L-18.5 4.2L-14.9 -11.8Z" fill="none" stroke="#079f56" stroke-width="2"></path></g><g transform="translate(1341 71)"><path d="M0 -21L16.4 -13.1L20.5 4.7L9.1 18.9L-9.1 18.9L-20.5 4.7L-16.4 -13.1Z" fill="none" stroke="#079f56" stroke-width="2"></path></g><g transform="translate(923 808)"><path d="M0 -21L16.4 -13.1L20.5 4.7L9.1 18.9L-9.1 18.9L-20.5 4.7L-16.4 -13.1Z" fill="none" stroke="#079f56" stroke-width="2"></path></g><g transform="translate(1176 691)"><path d="M0 -19L14.9 -11.8L18.5 4.2L8.2 17.1L-8.2 17.1L-18.5 4.2L-14.9 -11.8Z" fill="none" stroke="#079f56" stroke-width="2"></path></g><g transform="translate(37 706)"><path d="M0 -22L17.2 -13.7L21.4 4.9L9.5 19.8L-9.5 19.8L-21.4 4.9L-17.2 -13.7Z" fill="none" stroke="#079f56" stroke-width="2"></path></g><g transform="translate(1404 512)"><path d="M0 -20L15.6 -12.5L19.5 4.5L8.7 18L-8.7 18L-19.5 4.5L-15.6 -12.5Z" fill="none" stroke="#079f56" stroke-width="2"></path></g><g transform="translate(761 323)"><path d="M0 -23L18 -14.3L22.4 5.1L10 20.7L-10 20.7L-22.4 5.1L-18 -14.3Z" fill="none" stroke="#079f56" stroke-width="2"></path></g><g transform="translate(1312 179)"><path d="M0 -18L14.1 -11.2L17.5 4L7.8 16.2L-7.8 16.2L-17.5 4L-14.1 -11.2Z" fill="none" stroke="#079f56" stroke-width="2"></path></g><g transform="translate(1338 746)"><path d="M0 -18L14.1 -11.2L17.5 4L7.8 16.2L-7.8 16.2L-17.5 4L-14.1 -11.2Z" fill="none" stroke="#079f56" stroke-width="2"></path></g><g transform="translate(250 329)"><path d="M0 -18L14.1 -11.2L17.5 4L7.8 16.2L-7.8 16.2L-17.5 4L-14.1 -11.2Z" fill="none" stroke="#079f56" stroke-width="2"></path></g><g transform="translate(277 135)"><path d="M0 -18L14.1 -11.2L17.5 4L7.8 16.2L-7.8 16.2L-17.5 4L-14.1 -11.2Z" fill="none" stroke="#079f56" stroke-width="2"></path></g><g transform="translate(445 459)"><path d="M0 -22L17.2 -13.7L21.4 4.9L9.5 19.8L-9.5 19.8L-21.4 4.9L-17.2 -13.7Z" fill="none" stroke="#079f56" stroke-width="2"></path></g><g transform="translate(1917 102)"><path d="M0 -23L18 -14.3L22.4 5.1L10 20.7L-10 20.7L-22.4 5.1L-18 -14.3Z" fill="none" stroke="#079f56" stroke-width="2"></path></g><g transform="translate(1679 220)"><path d="M0 -19L14.9 -11.8L18.5 4.2L8.2 17.1L-8.2 17.1L-18.5 4.2L-14.9 -11.8Z" fill="none" stroke="#079f56" stroke-width="2"></path></g><g transform="translate(1881 822)"><path d="M0 -18L14.1 -11.2L17.5 4L7.8 16.2L-7.8 16.2L-17.5 4L-14.1 -11.2Z" fill="none" stroke="#079f56" stroke-width="2"></path></g><g transform="translate(201 998)"><path d="M0 -19L14.9 -11.8L18.5 4.2L8.2 17.1L-8.2 17.1L-18.5 4.2L-14.9 -11.8Z" fill="none" stroke="#079f56" stroke-width="2"></path></g><g transform="translate(442 836)"><path d="M0 -19L14.9 -11.8L18.5 4.2L8.2 17.1L-8.2 17.1L-18.5 4.2L-14.9 -11.8Z" fill="none" stroke="#079f56" stroke-width="2"></path></g><g transform="translate(607 272)"><path d="M0 -23L18 -14.3L22.4 5.1L10 20.7L-10 20.7L-22.4 5.1L-18 -14.3Z" fill="none" stroke="#079f56" stroke-width="2"></path></g><g transform="translate(1071 586)"><path d="M0 -22L17.2 -13.7L21.4 4.9L9.5 19.8L-9.5 19.8L-21.4 4.9L-17.2 -13.7Z" fill="none" stroke="#079f56" stroke-width="2"></path></g><g transform="translate(1003 155)"><path d="M0 -23L18 -14.3L22.4 5.1L10 20.7L-10 20.7L-22.4 5.1L-18 -14.3Z" fill="none" stroke="#079f56" stroke-width="2"></path></g><g transform="translate(957 231)"><path d="M0 -23L18 -14.3L22.4 5.1L10 20.7L-10 20.7L-22.4 5.1L-18 -14.3Z" fill="none" stroke="#079f56" stroke-width="2"></path></g><g transform="translate(942 734)"><path d="M0 -19L14.9 -11.8L18.5 4.2L8.2 17.1L-8.2 17.1L-18.5 4.2L-14.9 -11.8Z" fill="none" stroke="#079f56" stroke-width="2"></path></g><g transform="translate(62 775)"><path d="M0 -20L15.6 -12.5L19.5 4.5L8.7 18L-8.7 18L-19.5 4.5L-15.6 -12.5Z" fill="none" stroke="#079f56" stroke-width="2"></path></g><g transform="translate(792 52)"><path d="M0 -22L17.2 -13.7L21.4 4.9L9.5 19.8L-9.5 19.8L-21.4 4.9L-17.2 -13.7Z" fill="none" stroke="#079f56" stroke-width="2"></path></g><g transform="translate(1031 544)"><path d="M0 -22L17.2 -13.7L21.4 4.9L9.5 19.8L-9.5 19.8L-21.4 4.9L-17.2 -13.7Z" fill="none" stroke="#079f56" stroke-width="2"></path></g><g transform="translate(973 26)"><path d="M0 -23L18 -14.3L22.4 5.1L10 20.7L-10 20.7L-22.4 5.1L-18 -14.3Z" fill="none" stroke="#079f56" stroke-width="2"></path></g><g transform="translate(1684 103)"><path d="M0 -19L14.9 -11.8L18.5 4.2L8.2 17.1L-8.2 17.1L-18.5 4.2L-14.9 -11.8Z" fill="none" stroke="#079f56" stroke-width="2"></path></g><g transform="translate(1323 284)"><path d="M0 -19L14.9 -11.8L18.5 4.2L8.2 17.1L-8.2 17.1L-18.5 4.2L-14.9 -11.8Z" fill="none" stroke="#079f56" stroke-width="2"></path></g><g transform="translate(1889 662)"><path d="M0 -21L16.4 -13.1L20.5 4.7L9.1 18.9L-9.1 18.9L-20.5 4.7L-16.4 -13.1Z" fill="none" stroke="#079f56" stroke-width="2"></path></g><g transform="translate(173 305)"><path d="M0 -20L15.6 -12.5L19.5 4.5L8.7 18L-8.7 18L-19.5 4.5L-15.6 -12.5Z" fill="none" stroke="#079f56" stroke-width="2"></path></g><g transform="translate(1727 170)"><path d="M0 -23L18 -14.3L22.4 5.1L10 20.7L-10 20.7L-22.4 5.1L-18 -14.3Z" fill="none" stroke="#079f56" stroke-width="2"></path></g><g transform="translate(817 617)"><path d="M0 -19L14.9 -11.8L18.5 4.2L8.2 17.1L-8.2 17.1L-18.5 4.2L-14.9 -11.8Z" fill="none" stroke="#079f56" stroke-width="2"></path></g><g transform="translate(424 138)"><path d="M0 -22L17.2 -13.7L21.4 4.9L9.5 19.8L-9.5 19.8L-21.4 4.9L-17.2 -13.7Z" fill="none" stroke="#079f56" stroke-width="2"></path></g><g transform="translate(462 59)"><path d="M0 -22L17.2 -13.7L21.4 4.9L9.5 19.8L-9.5 19.8L-21.4 4.9L-17.2 -13.7Z" fill="none" stroke="#079f56" stroke-width="2"></path></g><g transform="translate(526 372)"><path d="M0 -18L14.1 -11.2L17.5 4L7.8 16.2L-7.8 16.2L-17.5 4L-14.1 -11.2Z" fill="none" stroke="#079f56" stroke-width="2"></path></g><g transform="translate(1283 502)"><path d="M0 -23L18 -14.3L22.4 5.1L10 20.7L-10 20.7L-22.4 5.1L-18 -14.3Z" fill="none" stroke="#079f56" stroke-width="2"></path></g><g transform="translate(649 338)"><path d="M0 -22L17.2 -13.7L21.4 4.9L9.5 19.8L-9.5 19.8L-21.4 4.9L-17.2 -13.7Z" fill="none" stroke="#079f56" stroke-width="2"></path></g><g transform="translate(1289 596)"><path d="M0 -20L15.6 -12.5L19.5 4.5L8.7 18L-8.7 18L-19.5 4.5L-15.6 -12.5Z" fill="none" stroke="#079f56" stroke-width="2"></path></g><g transform="translate(1603 603)"><path d="M0 -18L14.1 -11.2L17.5 4L7.8 16.2L-7.8 16.2L-17.5 4L-14.1 -11.2Z" fill="none" stroke="#079f56" stroke-width="2"></path></g><g transform="translate(231 271)"><path d="M0 -20L15.6 -12.5L19.5 4.5L8.7 18L-8.7 18L-19.5 4.5L-15.6 -12.5Z" fill="none" stroke="#079f56" stroke-width="2"></path></g><g transform="translate(1718 625)"><path d="M0 -21L16.4 -13.1L20.5 4.7L9.1 18.9L-9.1 18.9L-20.5 4.7L-16.4 -13.1Z" fill="none" stroke="#079f56" stroke-width="2"></path></g><g transform="translate(1273 388)"><path d="M0 -23L18 -14.3L22.4 5.1L10 20.7L-10 20.7L-22.4 5.1L-18 -14.3Z" fill="none" stroke="#079f56" stroke-width="2"></path></g><g transform="translate(1052 820)"><path d="M0 -19L14.9 -11.8L18.5 4.2L8.2 17.1L-8.2 17.1L-18.5 4.2L-14.9 -11.8Z" fill="none" stroke="#079f56" stroke-width="2"></path></g><g transform="translate(1796 212)"><path d="M0 -23L18 -14.3L22.4 5.1L10 20.7L-10 20.7L-22.4 5.1L-18 -14.3Z" fill="none" stroke="#079f56" stroke-width="2"></path></g><g transform="translate(682 207)"><path d="M0 -20L15.6 -12.5L19.5 4.5L8.7 18L-8.7 18L-19.5 4.5L-15.6 -12.5Z" fill="none" stroke="#079f56" stroke-width="2"></path></g><g transform="translate(853 256)"><path d="M0 -19L14.9 -11.8L18.5 4.2L8.2 17.1L-8.2 17.1L-18.5 4.2L-14.9 -11.8Z" fill="none" stroke="#079f56" stroke-width="2"></path></g><g transform="translate(555 169)"><path d="M0 -21L16.4 -13.1L20.5 4.7L9.1 18.9L-9.1 18.9L-20.5 4.7L-16.4 -13.1Z" fill="none" stroke="#079f56" stroke-width="2"></path></g><g transform="translate(1645 360)"><path d="M0 -18L14.1 -11.2L17.5 4L7.8 16.2L-7.8 16.2L-17.5 4L-14.1 -11.2Z" fill="none" stroke="#079f56" stroke-width="2"></path></g><g transform="translate(1766 990)"><path d="M0 -21L16.4 -13.1L20.5 4.7L9.1 18.9L-9.1 18.9L-20.5 4.7L-16.4 -13.1Z" fill="none" stroke="#079f56" stroke-width="2"></path></g><g transform="translate(1482 963)"><path d="M0 -23L18 -14.3L22.4 5.1L10 20.7L-10 20.7L-22.4 5.1L-18 -14.3Z" fill="none" stroke="#079f56" stroke-width="2"></path></g><g transform="translate(729 434)"><path d="M0 -21L16.4 -13.1L20.5 4.7L9.1 18.9L-9.1 18.9L-20.5 4.7L-16.4 -13.1Z" fill="none" stroke="#079f56" stroke-width="2"></path></g><g transform="translate(622 431)"><path d="M0 -19L14.9 -11.8L18.5 4.2L8.2 17.1L-8.2 17.1L-18.5 4.2L-14.9 -11.8Z" fill="none" stroke="#079f56" stroke-width="2"></path></g><g transform="translate(1014 99)"><path d="M0 -20L15.6 -12.5L19.5 4.5L8.7 18L-8.7 18L-19.5 4.5L-15.6 -12.5Z" fill="none" stroke="#079f56" stroke-width="2"></path></g><g transform="translate(1414 260)"><path d="M0 -20L15.6 -12.5L19.5 4.5L8.7 18L-8.7 18L-19.5 4.5L-15.6 -12.5Z" fill="none" stroke="#079f56" stroke-width="2"></path></g><g transform="translate(1673 801)"><path d="M0 -18L14.1 -11.2L17.5 4L7.8 16.2L-7.8 16.2L-17.5 4L-14.1 -11.2Z" fill="none" stroke="#079f56" stroke-width="2"></path></g><g transform="translate(631 931)"><path d="M0 -22L17.2 -13.7L21.4 4.9L9.5 19.8L-9.5 19.8L-21.4 4.9L-17.2 -13.7Z" fill="none" stroke="#079f56" stroke-width="2"></path></g><g transform="translate(1605 787)"><path d="M0 -20L15.6 -12.5L19.5 4.5L8.7 18L-8.7 18L-19.5 4.5L-15.6 -12.5Z" fill="none" stroke="#079f56" stroke-width="2"></path></g><g transform="translate(375 709)"><path d="M0 -18L14.1 -11.2L17.5 4L7.8 16.2L-7.8 16.2L-17.5 4L-14.1 -11.2Z" fill="none" stroke="#079f56" stroke-width="2"></path></g><g transform="translate(1764 894)"><path d="M0 -22L17.2 -13.7L21.4 4.9L9.5 19.8L-9.5 19.8L-21.4 4.9L-17.2 -13.7Z" fill="none" stroke="#079f56" stroke-width="2"></path></g><g transform="translate(317 81)"><path d="M0 -20L15.6 -12.5L19.5 4.5L8.7 18L-8.7 18L-19.5 4.5L-15.6 -12.5Z" fill="none" stroke="#079f56" stroke-width="2"></path></g><g transform="translate(212 664)"><path d="M0 -21L16.4 -13.1L20.5 4.7L9.1 18.9L-9.1 18.9L-20.5 4.7L-16.4 -13.1Z" fill="none" stroke="#079f56" stroke-width="2"></path></g><g transform="translate(1034 654)"><path d="M0 -23L18 -14.3L22.4 5.1L10 20.7L-10 20.7L-22.4 5.1L-18 -14.3Z" fill="none" stroke="#079f56" stroke-width="2"></path></g><g transform="translate(813 293)"><path d="M0 -23L18 -14.3L22.4 5.1L10 20.7L-10 20.7L-22.4 5.1L-18 -14.3Z" fill="none" stroke="#079f56" stroke-width="2"></path></g><g transform="translate(391 844)"><path d="M0 -19L14.9 -11.8L18.5 4.2L8.2 17.1L-8.2 17.1L-18.5 4.2L-14.9 -11.8Z" fill="none" stroke="#079f56" stroke-width="2"></path></g><g transform="translate(561 594)"><path d="M0 -23L18 -14.3L22.4 5.1L10 20.7L-10 20.7L-22.4 5.1L-18 -14.3Z" fill="none" stroke="#079f56" stroke-width="2"></path></g><g transform="translate(1694 554)"><path d="M0 -21L16.4 -13.1L20.5 4.7L9.1 18.9L-9.1 18.9L-20.5 4.7L-16.4 -13.1Z" fill="none" stroke="#079f56" stroke-width="2"></path></g><g transform="translate(1262 5)"><path d="M0 -21L16.4 -13.1L20.5 4.7L9.1 18.9L-9.1 18.9L-20.5 4.7L-16.4 -13.1Z" fill="none" stroke="#079f56" stroke-width="2"></path></g><g transform="translate(1591 281)"><path d="M0 -18L14.1 -11.2L17.5 4L7.8 16.2L-7.8 16.2L-17.5 4L-14.1 -11.2Z" fill="none" stroke="#079f56" stroke-width="2"></path></g><g transform="translate(1518 772)"><path d="M0 -18L14.1 -11.2L17.5 4L7.8 16.2L-7.8 16.2L-17.5 4L-14.1 -11.2Z" fill="none" stroke="#079f56" stroke-width="2"></path></g><g transform="translate(11 47)"><path d="M0 -23L18 -14.3L22.4 5.1L10 20.7L-10 20.7L-22.4 5.1L-18 -14.3Z" fill="none" stroke="#079f56" stroke-width="2"></path></g><g transform="translate(1574 903)"><path d="M0 -21L16.4 -13.1L20.5 4.7L9.1 18.9L-9.1 18.9L-20.5 4.7L-16.4 -13.1Z" fill="none" stroke="#079f56" stroke-width="2"></path></g><g transform="translate(559 310)"><path d="M0 -18L14.1 -11.2L17.5 4L7.8 16.2L-7.8 16.2L-17.5 4L-14.1 -11.2Z" fill="none" stroke="#079f56" stroke-width="2"></path></g><g transform="translate(93 654)"><path d="M0 -19L14.9 -11.8L18.5 4.2L8.2 17.1L-8.2 17.1L-18.5 4.2L-14.9 -11.8Z" fill="none" stroke="#079f56" stroke-width="2"></path></g><g transform="translate(834 832)"><path d="M0 -20L15.6 -12.5L19.5 4.5L8.7 18L-8.7 18L-19.5 4.5L-15.6 -12.5Z" fill="none" stroke="#079f56" stroke-width="2"></path></g><g transform="translate(424 406)"><path d="M0 -18L14.1 -11.2L17.5 4L7.8 16.2L-7.8 16.2L-17.5 4L-14.1 -11.2Z" fill="none" stroke="#079f56" stroke-width="2"></path></g><g transform="translate(171 955)"><path d="M0 -18L14.1 -11.2L17.5 4L7.8 16.2L-7.8 16.2L-17.5 4L-14.1 -11.2Z" fill="none" stroke="#079f56" stroke-width="2"></path></g><g transform="translate(1470 103)"><path d="M0 -20L15.6 -12.5L19.5 4.5L8.7 18L-8.7 18L-19.5 4.5L-15.6 -12.5Z" fill="none" stroke="#079f56" stroke-width="2"></path></g><g transform="translate(134 826)"><path d="M0 -19L14.9 -11.8L18.5 4.2L8.2 17.1L-8.2 17.1L-18.5 4.2L-14.9 -11.8Z" fill="none" stroke="#079f56" stroke-width="2"></path></g><g transform="translate(1115 831)"><path d="M0 -22L17.2 -13.7L21.4 4.9L9.5 19.8L-9.5 19.8L-21.4 4.9L-17.2 -13.7Z" fill="none" stroke="#079f56" stroke-width="2"></path></g><g transform="translate(36 346)"><path d="M0 -20L15.6 -12.5L19.5 4.5L8.7 18L-8.7 18L-19.5 4.5L-15.6 -12.5Z" fill="none" stroke="#079f56" stroke-width="2"></path></g><g transform="translate(1154 794)"><path d="M0 -21L16.4 -13.1L20.5 4.7L9.1 18.9L-9.1 18.9L-20.5 4.7L-16.4 -13.1Z" fill="none" stroke="#079f56" stroke-width="2"></path></g><g transform="translate(891 180)"><path d="M0 -19L14.9 -11.8L18.5 4.2L8.2 17.1L-8.2 17.1L-18.5 4.2L-14.9 -11.8Z" fill="none" stroke="#079f56" stroke-width="2"></path></g><g transform="translate(270 445)"><path d="M0 -19L14.9 -11.8L18.5 4.2L8.2 17.1L-8.2 17.1L-18.5 4.2L-14.9 -11.8Z" fill="none" stroke="#079f56" stroke-width="2"></path></g><g transform="translate(943 942)"><path d="M0 -23L18 -14.3L22.4 5.1L10 20.7L-10 20.7L-22.4 5.1L-18 -14.3Z" fill="none" stroke="#079f56" stroke-width="2"></path></g><g transform="translate(1526 394)"><path d="M0 -19L14.9 -11.8L18.5 4.2L8.2 17.1L-8.2 17.1L-18.5 4.2L-14.9 -11.8Z" fill="none" stroke="#079f56" stroke-width="2"></path></g><g transform="translate(193 77)"><path d="M0 -21L16.4 -13.1L20.5 4.7L9.1 18.9L-9.1 18.9L-20.5 4.7L-16.4 -13.1Z" fill="none" stroke="#079f56" stroke-width="2"></path></g><g transform="translate(1154 439)"><path d="M0 -22L17.2 -13.7L21.4 4.9L9.5 19.8L-9.5 19.8L-21.4 4.9L-17.2 -13.7Z" fill="none" stroke="#079f56" stroke-width="2"></path></g><g transform="translate(1141 562)"><path d="M0 -22L17.2 -13.7L21.4 4.9L9.5 19.8L-9.5 19.8L-21.4 4.9L-17.2 -13.7Z" fill="none" stroke="#079f56" stroke-width="2"></path></g><g transform="translate(424 11)"><path d="M0 -22L17.2 -13.7L21.4 4.9L9.5 19.8L-9.5 19.8L-21.4 4.9L-17.2 -13.7Z" fill="none" stroke="#079f56" stroke-width="2"></path></g><g transform="translate(866 891)"><path d="M0 -23L18 -14.3L22.4 5.1L10 20.7L-10 20.7L-22.4 5.1L-18 -14.3Z" fill="none" stroke="#079f56" stroke-width="2"></path></g><g transform="translate(153 392)"><path d="M0 -20L15.6 -12.5L19.5 4.5L8.7 18L-8.7 18L-19.5 4.5L-15.6 -12.5Z" fill="none" stroke="#079f56" stroke-width="2"></path></g><g transform="translate(162 441)"><path d="M0 -22L17.2 -13.7L21.4 4.9L9.5 19.8L-9.5 19.8L-21.4 4.9L-17.2 -13.7Z" fill="none" stroke="#079f56" stroke-width="2"></path></g><g transform="translate(1545 322)"><path d="M0 -22L17.2 -13.7L21.4 4.9L9.5 19.8L-9.5 19.8L-21.4 4.9L-17.2 -13.7Z" fill="none" stroke="#079f56" stroke-width="2"></path></g><g transform="translate(1181 383)"><path d="M0 -18L14.1 -11.2L17.5 4L7.8 16.2L-7.8 16.2L-17.5 4L-14.1 -11.2Z" fill="none" stroke="#079f56" stroke-width="2"></path></g><g transform="translate(665 525)"><path d="M0 -22L17.2 -13.7L21.4 4.9L9.5 19.8L-9.5 19.8L-21.4 4.9L-17.2 -13.7Z" fill="none" stroke="#079f56" stroke-width="2"></path></g><g transform="translate(1388 870)"><path d="M0 -22L17.2 -13.7L21.4 4.9L9.5 19.8L-9.5 19.8L-21.4 4.9L-17.2 -13.7Z" fill="none" stroke="#079f56" stroke-width="2"></path></g><g transform="translate(1222 991)"><path d="M0 -23L18 -14.3L22.4 5.1L10 20.7L-10 20.7L-22.4 5.1L-18 -14.3Z" fill="none" stroke="#079f56" stroke-width="2"></path></g><g transform="translate(126 204)"><path d="M0 -19L14.9 -11.8L18.5 4.2L8.2 17.1L-8.2 17.1L-18.5 4.2L-14.9 -11.8Z" fill="none" stroke="#079f56" stroke-width="2"></path></g><g transform="translate(329 319)"><path d="M0 -19L14.9 -11.8L18.5 4.2L8.2 17.1L-8.2 17.1L-18.5 4.2L-14.9 -11.8Z" fill="none" stroke="#079f56" stroke-width="2"></path></g><g transform="translate(964 880)"><path d="M0 -19L14.9 -11.8L18.5 4.2L8.2 17.1L-8.2 17.1L-18.5 4.2L-14.9 -11.8Z" fill="none" stroke="#079f56" stroke-width="2"></path></g><g transform="translate(377 369)"><path d="M0 -23L18 -14.3L22.4 5.1L10 20.7L-10 20.7L-22.4 5.1L-18 -14.3Z" fill="none" stroke="#079f56" stroke-width="2"></path></g><g transform="translate(1521 249)"><path d="M0 -19L14.9 -11.8L18.5 4.2L8.2 17.1L-8.2 17.1L-18.5 4.2L-14.9 -11.8Z" fill="none" stroke="#079f56" stroke-width="2"></path></g><g transform="translate(648 95)"><path d="M0 -21L16.4 -13.1L20.5 4.7L9.1 18.9L-9.1 18.9L-20.5 4.7L-16.4 -13.1Z" fill="none" stroke="#079f56" stroke-width="2"></path></g><g transform="translate(1006 781)"><path d="M0 -21L16.4 -13.1L20.5 4.7L9.1 18.9L-9.1 18.9L-20.5 4.7L-16.4 -13.1Z" fill="none" stroke="#079f56" stroke-width="2"></path></g><g transform="translate(1099 481)"><path d="M0 -23L18 -14.3L22.4 5.1L10 20.7L-10 20.7L-22.4 5.1L-18 -14.3Z" fill="none" stroke="#079f56" stroke-width="2"></path></g><g transform="translate(1409 353)"><path d="M0 -20L15.6 -12.5L19.5 4.5L8.7 18L-8.7 18L-19.5 4.5L-15.6 -12.5Z" fill="none" stroke="#079f56" stroke-width="2"></path></g><g transform="translate(1898 19)"><path d="M0 -23L18 -14.3L22.4 5.1L10 20.7L-10 20.7L-22.4 5.1L-18 -14.3Z" fill="none" stroke="#079f56" stroke-width="2"></path></g><g transform="translate(115 959)"><path d="M0 -18L14.1 -11.2L17.5 4L7.8 16.2L-7.8 16.2L-17.5 4L-14.1 -11.2Z" fill="none" stroke="#079f56" stroke-width="2"></path></g><g transform="translate(1185 188)"><path d="M0 -18L14.1 -11.2L17.5 4L7.8 16.2L-7.8 16.2L-17.5 4L-14.1 -11.2Z" fill="none" stroke="#079f56" stroke-width="2"></path></g><g transform="translate(1535 4)"><path d="M0 -20L15.6 -12.5L19.5 4.5L8.7 18L-8.7 18L-19.5 4.5L-15.6 -12.5Z" fill="none" stroke="#079f56" stroke-width="2"></path></g><g transform="translate(1169 842)"><path d="M0 -23L18 -14.3L22.4 5.1L10 20.7L-10 20.7L-22.4 5.1L-18 -14.3Z" fill="none" stroke="#079f56" stroke-width="2"></path></g><g transform="translate(1890 954)"><path d="M0 -21L16.4 -13.1L20.5 4.7L9.1 18.9L-9.1 18.9L-20.5 4.7L-16.4 -13.1Z" fill="none" stroke="#079f56" stroke-width="2"></path></g><g transform="translate(1168 954)"><path d="M0 -23L18 -14.3L22.4 5.1L10 20.7L-10 20.7L-22.4 5.1L-18 -14.3Z" fill="none" stroke="#079f56" stroke-width="2"></path></g><g transform="translate(1094 402)"><path d="M0 -21L16.4 -13.1L20.5 4.7L9.1 18.9L-9.1 18.9L-20.5 4.7L-16.4 -13.1Z" fill="none" stroke="#079f56" stroke-width="2"></path></g><g transform="translate(1459 804)"><path d="M0 -22L17.2 -13.7L21.4 4.9L9.5 19.8L-9.5 19.8L-21.4 4.9L-17.2 -13.7Z" fill="none" stroke="#079f56" stroke-width="2"></path></g><g transform="translate(1308 645)"><path d="M0 -20L15.6 -12.5L19.5 4.5L8.7 18L-8.7 18L-19.5 4.5L-15.6 -12.5Z" fill="none" stroke="#079f56" stroke-width="2"></path></g><g transform="translate(1223 533)"><path d="M0 -20L15.6 -12.5L19.5 4.5L8.7 18L-8.7 18L-19.5 4.5L-15.6 -12.5Z" fill="none" stroke="#079f56" stroke-width="2"></path></g><g transform="translate(836 346)"><path d="M0 -23L18 -14.3L22.4 5.1L10 20.7L-10 20.7L-22.4 5.1L-18 -14.3Z" fill="none" stroke="#079f56" stroke-width="2"></path></g><g transform="translate(536 519)"><path d="M0 -18L14.1 -11.2L17.5 4L7.8 16.2L-7.8 16.2L-17.5 4L-14.1 -11.2Z" fill="none" stroke="#079f56" stroke-width="2"></path></g><g transform="translate(1269 132)"><path d="M0 -23L18 -14.3L22.4 5.1L10 20.7L-10 20.7L-22.4 5.1L-18 -14.3Z" fill="none" stroke="#079f56" stroke-width="2"></path></g><g transform="translate(1325 419)"><path d="M0 -19L14.9 -11.8L18.5 4.2L8.2 17.1L-8.2 17.1L-18.5 4.2L-14.9 -11.8Z" fill="none" stroke="#079f56" stroke-width="2"></path></g><g transform="translate(1272 900)"><path d="M0 -21L16.4 -13.1L20.5 4.7L9.1 18.9L-9.1 18.9L-20.5 4.7L-16.4 -13.1Z" fill="none" stroke="#079f56" stroke-width="2"></path></g><g transform="translate(177 794)"><path d="M0 -19L14.9 -11.8L18.5 4.2L8.2 17.1L-8.2 17.1L-18.5 4.2L-14.9 -11.8Z" fill="none" stroke="#079f56" stroke-width="2"></path></g><g transform="translate(664 972)"><path d="M0 -22L17.2 -13.7L21.4 4.9L9.5 19.8L-9.5 19.8L-21.4 4.9L-17.2 -13.7Z" fill="none" stroke="#079f56" stroke-width="2"></path></g><g transform="translate(106 518)"><path d="M0 -22L17.2 -13.7L21.4 4.9L9.5 19.8L-9.5 19.8L-21.4 4.9L-17.2 -13.7Z" fill="none" stroke="#079f56" stroke-width="2"></path></g><g transform="translate(298 20)"><path d="M0 -23L18 -14.3L22.4 5.1L10 20.7L-10 20.7L-22.4 5.1L-18 -14.3Z" fill="none" stroke="#079f56" stroke-width="2"></path></g><g transform="translate(1728 267)"><path d="M0 -21L16.4 -13.1L20.5 4.7L9.1 18.9L-9.1 18.9L-20.5 4.7L-16.4 -13.1Z" fill="none" stroke="#079f56" stroke-width="2"></path></g><g transform="translate(509 470)"><path d="M0 -18L14.1 -11.2L17.5 4L7.8 16.2L-7.8 16.2L-17.5 4L-14.1 -11.2Z" fill="none" stroke="#079f56" stroke-width="2"></path></g><g transform="translate(1787 826)"><path d="M0 -18L14.1 -11.2L17.5 4L7.8 16.2L-7.8 16.2L-17.5 4L-14.1 -11.2Z" fill="none" stroke="#079f56" stroke-width="2"></path></g><g transform="translate(1367 455)"><path d="M0 -22L17.2 -13.7L21.4 4.9L9.5 19.8L-9.5 19.8L-21.4 4.9L-17.2 -13.7Z" fill="none" stroke="#079f56" stroke-width="2"></path></g><g transform="translate(1004 837)"><path d="M0 -21L16.4 -13.1L20.5 4.7L9.1 18.9L-9.1 18.9L-20.5 4.7L-16.4 -13.1Z" fill="none" stroke="#079f56" stroke-width="2"></path></g><g transform="translate(1567 658)"><path d="M0 -20L15.6 -12.5L19.5 4.5L8.7 18L-8.7 18L-19.5 4.5L-15.6 -12.5Z" fill="none" stroke="#079f56" stroke-width="2"></path></g><g transform="translate(560 781)"><path d="M0 -21L16.4 -13.1L20.5 4.7L9.1 18.9L-9.1 18.9L-20.5 4.7L-16.4 -13.1Z" fill="none" stroke="#079f56" stroke-width="2"></path></g><g transform="translate(907 423)"><path d="M0 -21L16.4 -13.1L20.5 4.7L9.1 18.9L-9.1 18.9L-20.5 4.7L-16.4 -13.1Z" fill="none" stroke="#079f56" stroke-width="2"></path></g><g transform="translate(825 179)"><path d="M0 -22L17.2 -13.7L21.4 4.9L9.5 19.8L-9.5 19.8L-21.4 4.9L-17.2 -13.7Z" fill="none" stroke="#079f56" stroke-width="2"></path></g><g transform="translate(1466 329)"><path d="M0 -22L17.2 -13.7L21.4 4.9L9.5 19.8L-9.5 19.8L-21.4 4.9L-17.2 -13.7Z" fill="none" stroke="#079f56" stroke-width="2"></path></g><g transform="translate(921 117)"><path d="M0 -20L15.6 -12.5L19.5 4.5L8.7 18L-8.7 18L-19.5 4.5L-15.6 -12.5Z" fill="none" stroke="#079f56" stroke-width="2"></path></g><g transform="translate(1667 413)"><path d="M0 -18L14.1 -11.2L17.5 4L7.8 16.2L-7.8 16.2L-17.5 4L-14.1 -11.2Z" fill="none" stroke="#079f56" stroke-width="2"></path></g><g transform="translate(1873 424)"><path d="M0 -21L16.4 -13.1L20.5 4.7L9.1 18.9L-9.1 18.9L-20.5 4.7L-16.4 -13.1Z" fill="none" stroke="#079f56" stroke-width="2"></path></g><g transform="translate(192 862)"><path d="M0 -19L14.9 -11.8L18.5 4.2L8.2 17.1L-8.2 17.1L-18.5 4.2L-14.9 -11.8Z" fill="none" stroke="#079f56" stroke-width="2"></path></g><g transform="translate(688 305)"><path d="M0 -20L15.6 -12.5L19.5 4.5L8.7 18L-8.7 18L-19.5 4.5L-15.6 -12.5Z" fill="none" stroke="#079f56" stroke-width="2"></path></g><g transform="translate(932 673)"><path d="M0 -19L14.9 -11.8L18.5 4.2L8.2 17.1L-8.2 17.1L-18.5 4.2L-14.9 -11.8Z" fill="none" stroke="#079f56" stroke-width="2"></path></g><g transform="translate(1064 108)"><path d="M0 -21L16.4 -13.1L20.5 4.7L9.1 18.9L-9.1 18.9L-20.5 4.7L-16.4 -13.1Z" fill="none" stroke="#079f56" stroke-width="2"></path></g><g transform="translate(1459 412)"><path d="M0 -19L14.9 -11.8L18.5 4.2L8.2 17.1L-8.2 17.1L-18.5 4.2L-14.9 -11.8Z" fill="none" stroke="#079f56" stroke-width="2"></path></g><g transform="translate(836 25)"><path d="M0 -22L17.2 -13.7L21.4 4.9L9.5 19.8L-9.5 19.8L-21.4 4.9L-17.2 -13.7Z" fill="none" stroke="#079f56" stroke-width="2"></path></g><g transform="translate(641 27)"><path d="M0 -23L18 -14.3L22.4 5.1L10 20.7L-10 20.7L-22.4 5.1L-18 -14.3Z" fill="none" stroke="#079f56" stroke-width="2"></path></g><g transform="translate(1778 558)"><path d="M0 -18L14.1 -11.2L17.5 4L7.8 16.2L-7.8 16.2L-17.5 4L-14.1 -11.2Z" fill="none" stroke="#079f56" stroke-width="2"></path></g><g transform="translate(600 653)"><path d="M0 -19L14.9 -11.8L18.5 4.2L8.2 17.1L-8.2 17.1L-18.5 4.2L-14.9 -11.8Z" fill="none" stroke="#079f56" stroke-width="2"></path></g><g transform="translate(336 260)"><path d="M0 -21L16.4 -13.1L20.5 4.7L9.1 18.9L-9.1 18.9L-20.5 4.7L-16.4 -13.1Z" fill="none" stroke="#079f56" stroke-width="2"></path></g><g transform="translate(984 674)"><path d="M0 -23L18 -14.3L22.4 5.1L10 20.7L-10 20.7L-22.4 5.1L-18 -14.3Z" fill="none" stroke="#079f56" stroke-width="2"></path></g><g transform="translate(1908 460)"><path d="M0 -23L18 -14.3L22.4 5.1L10 20.7L-10 20.7L-22.4 5.1L-18 -14.3Z" fill="none" stroke="#079f56" stroke-width="2"></path></g><g transform="translate(721 164)"><path d="M0 -22L17.2 -13.7L21.4 4.9L9.5 19.8L-9.5 19.8L-21.4 4.9L-17.2 -13.7Z" fill="none" stroke="#079f56" stroke-width="2"></path></g><g transform="translate(592 875)"><path d="M0 -20L15.6 -12.5L19.5 4.5L8.7 18L-8.7 18L-19.5 4.5L-15.6 -12.5Z" fill="none" stroke="#079f56" stroke-width="2"></path></g><g transform="translate(822 781)"><path d="M0 -21L16.4 -13.1L20.5 4.7L9.1 18.9L-9.1 18.9L-20.5 4.7L-16.4 -13.1Z" fill="none" stroke="#079f56" stroke-width="2"></path></g><g transform="translate(251 766)"><path d="M0 -18L14.1 -11.2L17.5 4L7.8 16.2L-7.8 16.2L-17.5 4L-14.1 -11.2Z" fill="none" stroke="#079f56" stroke-width="2"></path></g><g transform="translate(1440 700)"><path d="M0 -19L14.9 -11.8L18.5 4.2L8.2 17.1L-8.2 17.1L-18.5 4.2L-14.9 -11.8Z" fill="none" stroke="#079f56" stroke-width="2"></path></g><g transform="translate(1128 629)"><path d="M0 -23L18 -14.3L22.4 5.1L10 20.7L-10 20.7L-22.4 5.1L-18 -14.3Z" fill="none" stroke="#079f56" stroke-width="2"></path></g><g transform="translate(815 900)"><path d="M0 -20L15.6 -12.5L19.5 4.5L8.7 18L-8.7 18L-19.5 4.5L-15.6 -12.5Z" fill="none" stroke="#079f56" stroke-width="2"></path></g><g transform="translate(183 743)"><path d="M0 -22L17.2 -13.7L21.4 4.9L9.5 19.8L-9.5 19.8L-21.4 4.9L-17.2 -13.7Z" fill="none" stroke="#079f56" stroke-width="2"></path></g><g transform="translate(1799 944)"><path d="M0 -18L14.1 -11.2L17.5 4L7.8 16.2L-7.8 16.2L-17.5 4L-14.1 -11.2Z" fill="none" stroke="#079f56" stroke-width="2"></path></g><g transform="translate(609 561)"><path d="M0 -23L18 -14.3L22.4 5.1L10 20.7L-10 20.7L-22.4 5.1L-18 -14.3Z" fill="none" stroke="#079f56" stroke-width="2"></path></g><g transform="translate(773 577)"><path d="M0 -20L15.6 -12.5L19.5 4.5L8.7 18L-8.7 18L-19.5 4.5L-15.6 -12.5Z" fill="none" stroke="#079f56" stroke-width="2"></path></g><g transform="translate(1404 612)"><path d="M0 -19L14.9 -11.8L18.5 4.2L8.2 17.1L-8.2 17.1L-18.5 4.2L-14.9 -11.8Z" fill="none" stroke="#079f56" stroke-width="2"></path></g><g transform="translate(737 940)"><path d="M0 -19L14.9 -11.8L18.5 4.2L8.2 17.1L-8.2 17.1L-18.5 4.2L-14.9 -11.8Z" fill="none" stroke="#079f56" stroke-width="2"></path></g><g transform="translate(758 892)"><path d="M0 -19L14.9 -11.8L18.5 4.2L8.2 17.1L-8.2 17.1L-18.5 4.2L-14.9 -11.8Z" fill="none" stroke="#079f56" stroke-width="2"></path></g><g transform="translate(491 570)"><path d="M0 -19L14.9 -11.8L18.5 4.2L8.2 17.1L-8.2 17.1L-18.5 4.2L-14.9 -11.8Z" fill="none" stroke="#079f56" stroke-width="2"></path></g><g transform="translate(1840 698)"><path d="M0 -23L18 -14.3L22.4 5.1L10 20.7L-10 20.7L-22.4 5.1L-18 -14.3Z" fill="none" stroke="#079f56" stroke-width="2"></path></g><g transform="translate(1452 874)"><path d="M0 -23L18 -14.3L22.4 5.1L10 20.7L-10 20.7L-22.4 5.1L-18 -14.3Z" fill="none" stroke="#079f56" stroke-width="2"></path></g><g transform="translate(425 220)"><path d="M0 -19L14.9 -11.8L18.5 4.2L8.2 17.1L-8.2 17.1L-18.5 4.2L-14.9 -11.8Z" fill="none" stroke="#079f56" stroke-width="2"></path></g><g transform="translate(1302 974)"><path d="M0 -19L14.9 -11.8L18.5 4.2L8.2 17.1L-8.2 17.1L-18.5 4.2L-14.9 -11.8Z" fill="none" stroke="#079f56" stroke-width="2"></path></g><g transform="translate(210 400)"><path d="M0 -19L14.9 -11.8L18.5 4.2L8.2 17.1L-8.2 17.1L-18.5 4.2L-14.9 -11.8Z" fill="none" stroke="#079f56" stroke-width="2"></path></g><g transform="translate(1541 179)"><path d="M0 -21L16.4 -13.1L20.5 4.7L9.1 18.9L-9.1 18.9L-20.5 4.7L-16.4 -13.1Z" fill="none" stroke="#079f56" stroke-width="2"></path></g><g transform="translate(635 720)"><path d="M0 -18L14.1 -11.2L17.5 4L7.8 16.2L-7.8 16.2L-17.5 4L-14.1 -11.2Z" fill="none" stroke="#079f56" stroke-width="2"></path></g><g transform="translate(765 390)"><path d="M0 -23L18 -14.3L22.4 5.1L10 20.7L-10 20.7L-22.4 5.1L-18 -14.3Z" fill="none" stroke="#079f56" stroke-width="2"></path></g><g transform="translate(461 629)"><path d="M0 -18L14.1 -11.2L17.5 4L7.8 16.2L-7.8 16.2L-17.5 4L-14.1 -11.2Z" fill="none" stroke="#079f56" stroke-width="2"></path></g><g transform="translate(714 363)"><path d="M0 -22L17.2 -13.7L21.4 4.9L9.5 19.8L-9.5 19.8L-21.4 4.9L-17.2 -13.7Z" fill="none" stroke="#079f56" stroke-width="2"></path></g><g transform="translate(561 982)"><path d="M0 -18L14.1 -11.2L17.5 4L7.8 16.2L-7.8 16.2L-17.5 4L-14.1 -11.2Z" fill="none" stroke="#079f56" stroke-width="2"></path></g><g transform="translate(705 884)"><path d="M0 -18L14.1 -11.2L17.5 4L7.8 16.2L-7.8 16.2L-17.5 4L-14.1 -11.2Z" fill="none" stroke="#079f56" stroke-width="2"></path></g><g transform="translate(1085 171)"><path d="M0 -21L16.4 -13.1L20.5 4.7L9.1 18.9L-9.1 18.9L-20.5 4.7L-16.4 -13.1Z" fill="none" stroke="#079f56" stroke-width="2"></path></g><g transform="translate(1622 157)"><path d="M0 -19L14.9 -11.8L18.5 4.2L8.2 17.1L-8.2 17.1L-18.5 4.2L-14.9 -11.8Z" fill="none" stroke="#079f56" stroke-width="2"></path></g><g transform="translate(46 485)"><path d="M0 -19L14.9 -11.8L18.5 4.2L8.2 17.1L-8.2 17.1L-18.5 4.2L-14.9 -11.8Z" fill="none" stroke="#079f56" stroke-width="2"></path></g><g transform="translate(1472 645)"><path d="M0 -20L15.6 -12.5L19.5 4.5L8.7 18L-8.7 18L-19.5 4.5L-15.6 -12.5Z" fill="none" stroke="#079f56" stroke-width="2"></path></g><g transform="translate(648 171)"><path d="M0 -19L14.9 -11.8L18.5 4.2L8.2 17.1L-8.2 17.1L-18.5 4.2L-14.9 -11.8Z" fill="none" stroke="#079f56" stroke-width="2"></path></g><g transform="translate(1809 50)"><path d="M0 -22L17.2 -13.7L21.4 4.9L9.5 19.8L-9.5 19.8L-21.4 4.9L-17.2 -13.7Z" fill="none" stroke="#079f56" stroke-width="2"></path></g><g transform="translate(1128 94)"><path d="M0 -22L17.2 -13.7L21.4 4.9L9.5 19.8L-9.5 19.8L-21.4 4.9L-17.2 -13.7Z" fill="none" stroke="#079f56" stroke-width="2"></path></g><g transform="translate(501 322)"><path d="M0 -23L18 -14.3L22.4 5.1L10 20.7L-10 20.7L-22.4 5.1L-18 -14.3Z" fill="none" stroke="#079f56" stroke-width="2"></path></g><g transform="translate(497 886)"><path d="M0 -19L14.9 -11.8L18.5 4.2L8.2 17.1L-8.2 17.1L-18.5 4.2L-14.9 -11.8Z" fill="none" stroke="#079f56" stroke-width="2"></path></g><g transform="translate(250 887)"><path d="M0 -18L14.1 -11.2L17.5 4L7.8 16.2L-7.8 16.2L-17.5 4L-14.1 -11.2Z" fill="none" stroke="#079f56" stroke-width="2"></path></g><g transform="translate(817 958)"><path d="M0 -18L14.1 -11.2L17.5 4L7.8 16.2L-7.8 16.2L-17.5 4L-14.1 -11.2Z" fill="none" stroke="#079f56" stroke-width="2"></path></g><g transform="translate(1373 5)"><path d="M0 -20L15.6 -12.5L19.5 4.5L8.7 18L-8.7 18L-19.5 4.5L-15.6 -12.5Z" fill="none" stroke="#079f56" stroke-width="2"></path></g><g transform="translate(1212 108)"><path d="M0 -18L14.1 -11.2L17.5 4L7.8 16.2L-7.8 16.2L-17.5 4L-14.1 -11.2Z" fill="none" stroke="#079f56" stroke-width="2"></path></g><g transform="translate(721 22)"><path d="M0 -21L16.4 -13.1L20.5 4.7L9.1 18.9L-9.1 18.9L-20.5 4.7L-16.4 -13.1Z" fill="none" stroke="#079f56" stroke-width="2"></path></g><g transform="translate(1594 732)"><path d="M0 -23L18 -14.3L22.4 5.1L10 20.7L-10 20.7L-22.4 5.1L-18 -14.3Z" fill="none" stroke="#079f56" stroke-width="2"></path></g><g transform="translate(666 405)"><path d="M0 -20L15.6 -12.5L19.5 4.5L8.7 18L-8.7 18L-19.5 4.5L-15.6 -12.5Z" fill="none" stroke="#079f56" stroke-width="2"></path></g><g transform="translate(1892 721)"><path d="M0 -20L15.6 -12.5L19.5 4.5L8.7 18L-8.7 18L-19.5 4.5L-15.6 -12.5Z" fill="none" stroke="#079f56" stroke-width="2"></path></g><g transform="translate(696 720)"><path d="M0 -21L16.4 -13.1L20.5 4.7L9.1 18.9L-9.1 18.9L-20.5 4.7L-16.4 -13.1Z" fill="none" stroke="#079f56" stroke-width="2"></path></g><g transform="translate(1019 291)"><path d="M0 -23L18 -14.3L22.4 5.1L10 20.7L-10 20.7L-22.4 5.1L-18 -14.3Z" fill="none" stroke="#079f56" stroke-width="2"></path></g><g transform="translate(1898 518)"><path d="M0 -18L14.1 -11.2L17.5 4L7.8 16.2L-7.8 16.2L-17.5 4L-14.1 -11.2Z" fill="none" stroke="#079f56" stroke-width="2"></path></g><g transform="translate(1075 321)"><path d="M0 -18L14.1 -11.2L17.5 4L7.8 16.2L-7.8 16.2L-17.5 4L-14.1 -11.2Z" fill="none" stroke="#079f56" stroke-width="2"></path></g><g transform="translate(1097 986)"><path d="M0 -23L18 -14.3L22.4 5.1L10 20.7L-10 20.7L-22.4 5.1L-18 -14.3Z" fill="none" stroke="#079f56" stroke-width="2"></path></g><g transform="translate(1252 445)"><path d="M0 -22L17.2 -13.7L21.4 4.9L9.5 19.8L-9.5 19.8L-21.4 4.9L-17.2 -13.7Z" fill="none" stroke="#079f56" stroke-width="2"></path></g><g transform="translate(756 201)"><path d="M0 -21L16.4 -13.1L20.5 4.7L9.1 18.9L-9.1 18.9L-20.5 4.7L-16.4 -13.1Z" fill="none" stroke="#079f56" stroke-width="2"></path></g><g transform="translate(1126 270)"><path d="M0 -20L15.6 -12.5L19.5 4.5L8.7 18L-8.7 18L-19.5 4.5L-15.6 -12.5Z" fill="none" stroke="#079f56" stroke-width="2"></path></g><g transform="translate(889 294)"><path d="M0 -20L15.6 -12.5L19.5 4.5L8.7 18L-8.7 18L-19.5 4.5L-15.6 -12.5Z" fill="none" stroke="#079f56" stroke-width="2"></path></g><g transform="translate(404 284)"><path d="M0 -20L15.6 -12.5L19.5 4.5L8.7 18L-8.7 18L-19.5 4.5L-15.6 -12.5Z" fill="none" stroke="#079f56" stroke-width="2"></path></g><g transform="translate(544 16)"><path d="M0 -18L14.1 -11.2L17.5 4L7.8 16.2L-7.8 16.2L-17.5 4L-14.1 -11.2Z" fill="none" stroke="#079f56" stroke-width="2"></path></g><g transform="translate(839 498)"><path d="M0 -22L17.2 -13.7L21.4 4.9L9.5 19.8L-9.5 19.8L-21.4 4.9L-17.2 -13.7Z" fill="none" stroke="#079f56" stroke-width="2"></path></g><g transform="translate(1026 470)"><path d="M0 -19L14.9 -11.8L18.5 4.2L8.2 17.1L-8.2 17.1L-18.5 4.2L-14.9 -11.8Z" fill="none" stroke="#079f56" stroke-width="2"></path></g><g transform="translate(1182 296)"><path d="M0 -22L17.2 -13.7L21.4 4.9L9.5 19.8L-9.5 19.8L-21.4 4.9L-17.2 -13.7Z" fill="none" stroke="#079f56" stroke-width="2"></path></g><g transform="translate(1729 445)"><path d="M0 -21L16.4 -13.1L20.5 4.7L9.1 18.9L-9.1 18.9L-20.5 4.7L-16.4 -13.1Z" fill="none" stroke="#079f56" stroke-width="2"></path></g><g transform="translate(653 591)"><path d="M0 -18L14.1 -11.2L17.5 4L7.8 16.2L-7.8 16.2L-17.5 4L-14.1 -11.2Z" fill="none" stroke="#079f56" stroke-width="2"></path></g><g transform="translate(47 539)"><path d="M0 -23L18 -14.3L22.4 5.1L10 20.7L-10 20.7L-22.4 5.1L-18 -14.3Z" fill="none" stroke="#079f56" stroke-width="2"></path></g><g transform="translate(951 178)"><path d="M0 -22L17.2 -13.7L21.4 4.9L9.5 19.8L-9.5 19.8L-21.4 4.9L-17.2 -13.7Z" fill="none" stroke="#079f56" stroke-width="2"></path></g><g transform="translate(1864 218)"><path d="M0 -20L15.6 -12.5L19.5 4.5L8.7 18L-8.7 18L-19.5 4.5L-15.6 -12.5Z" fill="none" stroke="#079f56" stroke-width="2"></path></g><g transform="translate(468 360)"><path d="M0 -21L16.4 -13.1L20.5 4.7L9.1 18.9L-9.1 18.9L-20.5 4.7L-16.4 -13.1Z" fill="none" stroke="#079f56" stroke-width="2"></path></g><g transform="translate(997 612)"><path d="M0 -19L14.9 -11.8L18.5 4.2L8.2 17.1L-8.2 17.1L-18.5 4.2L-14.9 -11.8Z" fill="none" stroke="#079f56" stroke-width="2"></path></g><g transform="translate(1540 449)"><path d="M0 -20L15.6 -12.5L19.5 4.5L8.7 18L-8.7 18L-19.5 4.5L-15.6 -12.5Z" fill="none" stroke="#079f56" stroke-width="2"></path></g><g transform="translate(525 671)"><path d="M0 -20L15.6 -12.5L19.5 4.5L8.7 18L-8.7 18L-19.5 4.5L-15.6 -12.5Z" fill="none" stroke="#079f56" stroke-width="2"></path></g><g transform="translate(1645 842)"><path d="M0 -20L15.6 -12.5L19.5 4.5L8.7 18L-8.7 18L-19.5 4.5L-15.6 -12.5Z" fill="none" stroke="#079f56" stroke-width="2"></path></g><g transform="translate(77 240)"><path d="M0 -19L14.9 -11.8L18.5 4.2L8.2 17.1L-8.2 17.1L-18.5 4.2L-14.9 -11.8Z" fill="none" stroke="#079f56" stroke-width="2"></path></g><g transform="translate(971 465)"><path d="M0 -19L14.9 -11.8L18.5 4.2L8.2 17.1L-8.2 17.1L-18.5 4.2L-14.9 -11.8Z" fill="none" stroke="#079f56" stroke-width="2"></path></g><g transform="translate(2 888)"><path d="M0 -22L17.2 -13.7L21.4 4.9L9.5 19.8L-9.5 19.8L-21.4 4.9L-17.2 -13.7Z" fill="none" stroke="#079f56" stroke-width="2"></path></g><g transform="translate(351 616)"><path d="M0 -21L16.4 -13.1L20.5 4.7L9.1 18.9L-9.1 18.9L-20.5 4.7L-16.4 -13.1Z" fill="none" stroke="#079f56" stroke-width="2"></path></g><g transform="translate(1777 347)"><path d="M0 -22L17.2 -13.7L21.4 4.9L9.5 19.8L-9.5 19.8L-21.4 4.9L-17.2 -13.7Z" fill="none" stroke="#079f56" stroke-width="2"></path></g><g transform="translate(256 607)"><path d="M0 -19L14.9 -11.8L18.5 4.2L8.2 17.1L-8.2 17.1L-18.5 4.2L-14.9 -11.8Z" fill="none" stroke="#079f56" stroke-width="2"></path></g><g transform="translate(1433 461)"><path d="M0 -20L15.6 -12.5L19.5 4.5L8.7 18L-8.7 18L-19.5 4.5L-15.6 -12.5Z" fill="none" stroke="#079f56" stroke-width="2"></path></g><g transform="translate(401 900)"><path d="M0 -23L18 -14.3L22.4 5.1L10 20.7L-10 20.7L-22.4 5.1L-18 -14.3Z" fill="none" stroke="#079f56" stroke-width="2"></path></g><g transform="translate(1646 281)"><path d="M0 -18L14.1 -11.2L17.5 4L7.8 16.2L-7.8 16.2L-17.5 4L-14.1 -11.2Z" fill="none" stroke="#079f56" stroke-width="2"></path></g><g transform="translate(1667 653)"><path d="M0 -19L14.9 -11.8L18.5 4.2L8.2 17.1L-8.2 17.1L-18.5 4.2L-14.9 -11.8Z" fill="none" stroke="#079f56" stroke-width="2"></path></g><g transform="translate(242 84)"><path d="M0 -23L18 -14.3L22.4 5.1L10 20.7L-10 20.7L-22.4 5.1L-18 -14.3Z" fill="none" stroke="#079f56" stroke-width="2"></path></g><g transform="translate(1270 280)"><path d="M0 -19L14.9 -11.8L18.5 4.2L8.2 17.1L-8.2 17.1L-18.5 4.2L-14.9 -11.8Z" fill="none" stroke="#079f56" stroke-width="2"></path></g><g transform="translate(1341 346)"><path d="M0 -21L16.4 -13.1L20.5 4.7L9.1 18.9L-9.1 18.9L-20.5 4.7L-16.4 -13.1Z" fill="none" stroke="#079f56" stroke-width="2"></path></g><g transform="translate(776 816)"><path d="M0 -19L14.9 -11.8L18.5 4.2L8.2 17.1L-8.2 17.1L-18.5 4.2L-14.9 -11.8Z" fill="none" stroke="#079f56" stroke-width="2"></path></g><g transform="translate(1021 371)"><path d="M0 -18L14.1 -11.2L17.5 4L7.8 16.2L-7.8 16.2L-17.5 4L-14.1 -11.2Z" fill="none" stroke="#079f56" stroke-width="2"></path></g><g transform="translate(1251 805)"><path d="M0 -21L16.4 -13.1L20.5 4.7L9.1 18.9L-9.1 18.9L-20.5 4.7L-16.4 -13.1Z" fill="none" stroke="#079f56" stroke-width="2"></path></g><g transform="translate(1491 461)"><path d="M0 -21L16.4 -13.1L20.5 4.7L9.1 18.9L-9.1 18.9L-20.5 4.7L-16.4 -13.1Z" fill="none" stroke="#079f56" stroke-width="2"></path></g><g transform="translate(316 165)"><path d="M0 -22L17.2 -13.7L21.4 4.9L9.5 19.8L-9.5 19.8L-21.4 4.9L-17.2 -13.7Z" fill="none" stroke="#079f56" stroke-width="2"></path></g><g transform="translate(1601 447)"><path d="M0 -20L15.6 -12.5L19.5 4.5L8.7 18L-8.7 18L-19.5 4.5L-15.6 -12.5Z" fill="none" stroke="#079f56" stroke-width="2"></path></g><g transform="translate(116 583)"><path d="M0 -20L15.6 -12.5L19.5 4.5L8.7 18L-8.7 18L-19.5 4.5L-15.6 -12.5Z" fill="none" stroke="#079f56" stroke-width="2"></path></g><g transform="translate(249 177)"><path d="M0 -19L14.9 -11.8L18.5 4.2L8.2 17.1L-8.2 17.1L-18.5 4.2L-14.9 -11.8Z" fill="none" stroke="#079f56" stroke-width="2"></path></g><g transform="translate(1817 609)"><path d="M0 -19L14.9 -11.8L18.5 4.2L8.2 17.1L-8.2 17.1L-18.5 4.2L-14.9 -11.8Z" fill="none" stroke="#079f56" stroke-width="2"></path></g><g transform="translate(165 7)"><path d="M0 -21L16.4 -13.1L20.5 4.7L9.1 18.9L-9.1 18.9L-20.5 4.7L-16.4 -13.1Z" fill="none" stroke="#079f56" stroke-width="2"></path></g><g transform="translate(1245 945)"><path d="M0 -22L17.2 -13.7L21.4 4.9L9.5 19.8L-9.5 19.8L-21.4 4.9L-17.2 -13.7Z" fill="none" stroke="#079f56" stroke-width="2"></path></g><g transform="translate(1815 143)"><path d="M0 -20L15.6 -12.5L19.5 4.5L8.7 18L-8.7 18L-19.5 4.5L-15.6 -12.5Z" fill="none" stroke="#079f56" stroke-width="2"></path></g><g transform="translate(1199 644)"><path d="M0 -23L18 -14.3L22.4 5.1L10 20.7L-10 20.7L-22.4 5.1L-18 -14.3Z" fill="none" stroke="#079f56" stroke-width="2"></path></g><g transform="translate(1371 229)"><path d="M0 -21L16.4 -13.1L20.5 4.7L9.1 18.9L-9.1 18.9L-20.5 4.7L-16.4 -13.1Z" fill="none" stroke="#079f56" stroke-width="2"></path></g><g transform="translate(189 150)"><path d="M0 -22L17.2 -13.7L21.4 4.9L9.5 19.8L-9.5 19.8L-21.4 4.9L-17.2 -13.7Z" fill="none" stroke="#079f56" stroke-width="2"></path></g><g transform="translate(1206 588)"><path d="M0 -19L14.9 -11.8L18.5 4.2L8.2 17.1L-8.2 17.1L-18.5 4.2L-14.9 -11.8Z" fill="none" stroke="#079f56" stroke-width="2"></path></g><g transform="translate(307 788)"><path d="M0 -21L16.4 -13.1L20.5 4.7L9.1 18.9L-9.1 18.9L-20.5 4.7L-16.4 -13.1Z" fill="none" stroke="#079f56" stroke-width="2"></path></g><g transform="translate(641 784)"><path d="M0 -19L14.9 -11.8L18.5 4.2L8.2 17.1L-8.2 17.1L-18.5 4.2L-14.9 -11.8Z" fill="none" stroke="#079f56" stroke-width="2"></path></g><g transform="translate(200 216)"><path d="M0 -20L15.6 -12.5L19.5 4.5L8.7 18L-8.7 18L-19.5 4.5L-15.6 -12.5Z" fill="none" stroke="#079f56" stroke-width="2"></path></g><g transform="translate(1443 48)"><path d="M0 -21L16.4 -13.1L20.5 4.7L9.1 18.9L-9.1 18.9L-20.5 4.7L-16.4 -13.1Z" fill="none" stroke="#079f56" stroke-width="2"></path></g><g transform="translate(1760 713)"><path d="M0 -18L14.1 -11.2L17.5 4L7.8 16.2L-7.8 16.2L-17.5 4L-14.1 -11.2Z" fill="none" stroke="#079f56" stroke-width="2"></path></g><g transform="translate(348 15)"><path d="M0 -21L16.4 -13.1L20.5 4.7L9.1 18.9L-9.1 18.9L-20.5 4.7L-16.4 -13.1Z" fill="none" stroke="#079f56" stroke-width="2"></path></g><g transform="translate(1900 576)"><path d="M0 -21L16.4 -13.1L20.5 4.7L9.1 18.9L-9.1 18.9L-20.5 4.7L-16.4 -13.1Z" fill="none" stroke="#079f56" stroke-width="2"></path></g><g transform="translate(1818 994)"><path d="M0 -18L14.1 -11.2L17.5 4L7.8 16.2L-7.8 16.2L-17.5 4L-14.1 -11.2Z" fill="none" stroke="#079f56" stroke-width="2"></path></g><g transform="translate(309 672)"><path d="M0 -23L18 -14.3L22.4 5.1L10 20.7L-10 20.7L-22.4 5.1L-18 -14.3Z" fill="none" stroke="#079f56" stroke-width="2"></path></g><g transform="translate(333 441)"><path d="M0 -20L15.6 -12.5L19.5 4.5L8.7 18L-8.7 18L-19.5 4.5L-15.6 -12.5Z" fill="none" stroke="#079f56" stroke-width="2"></path></g><g transform="translate(1844 303)"><path d="M0 -22L17.2 -13.7L21.4 4.9L9.5 19.8L-9.5 19.8L-21.4 4.9L-17.2 -13.7Z" fill="none" stroke="#079f56" stroke-width="2"></path></g><g transform="translate(588 370)"><path d="M0 -21L16.4 -13.1L20.5 4.7L9.1 18.9L-9.1 18.9L-20.5 4.7L-16.4 -13.1Z" fill="none" stroke="#079f56" stroke-width="2"></path></g><g transform="translate(3 586)"><path d="M0 -19L14.9 -11.8L18.5 4.2L8.2 17.1L-8.2 17.1L-18.5 4.2L-14.9 -11.8Z" fill="none" stroke="#079f56" stroke-width="2"></path></g><g transform="translate(67 132)"><path d="M0 -20L15.6 -12.5L19.5 4.5L8.7 18L-8.7 18L-19.5 4.5L-15.6 -12.5Z" fill="none" stroke="#079f56" stroke-width="2"></path></g><g transform="translate(1255 231)"><path d="M0 -20L15.6 -12.5L19.5 4.5L8.7 18L-8.7 18L-19.5 4.5L-15.6 -12.5Z" fill="none" stroke="#079f56" stroke-width="2"></path></g><g transform="translate(90 363)"><path d="M0 -20L15.6 -12.5L19.5 4.5L8.7 18L-8.7 18L-19.5 4.5L-15.6 -12.5Z" fill="none" stroke="#079f56" stroke-width="2"></path></g><g transform="translate(1526 572)"><path d="M0 -19L14.9 -11.8L18.5 4.2L8.2 17.1L-8.2 17.1L-18.5 4.2L-14.9 -11.8Z" fill="none" stroke="#079f56" stroke-width="2"></path></g><g transform="translate(388 450)"><path d="M0 -19L14.9 -11.8L18.5 4.2L8.2 17.1L-8.2 17.1L-18.5 4.2L-14.9 -11.8Z" fill="none" stroke="#079f56" stroke-width="2"></path></g><g transform="translate(79 187)"><path d="M0 -21L16.4 -13.1L20.5 4.7L9.1 18.9L-9.1 18.9L-20.5 4.7L-16.4 -13.1Z" fill="none" stroke="#079f56" stroke-width="2"></path></g><g transform="translate(1823 892)"><path d="M0 -20L15.6 -12.5L19.5 4.5L8.7 18L-8.7 18L-19.5 4.5L-15.6 -12.5Z" fill="none" stroke="#079f56" stroke-width="2"></path></g><g transform="translate(1782 498)"><path d="M0 -20L15.6 -12.5L19.5 4.5L8.7 18L-8.7 18L-19.5 4.5L-15.6 -12.5Z" fill="none" stroke="#079f56" stroke-width="2"></path></g><g transform="translate(414 783)"><path d="M0 -20L15.6 -12.5L19.5 4.5L8.7 18L-8.7 18L-19.5 4.5L-15.6 -12.5Z" fill="none" stroke="#079f56" stroke-width="2"></path></g><g transform="translate(1458 519)"><path d="M0 -18L14.1 -11.2L17.5 4L7.8 16.2L-7.8 16.2L-17.5 4L-14.1 -11.2Z" fill="none" stroke="#079f56" stroke-width="2"></path></g><g transform="translate(301 878)"><path d="M0 -23L18 -14.3L22.4 5.1L10 20.7L-10 20.7L-22.4 5.1L-18 -14.3Z" fill="none" stroke="#079f56" stroke-width="2"></path></g><g transform="translate(969 342)"><path d="M0 -22L17.2 -13.7L21.4 4.9L9.5 19.8L-9.5 19.8L-21.4 4.9L-17.2 -13.7Z" fill="none" stroke="#079f56" stroke-width="2"></path></g><g transform="translate(38 273)"><path d="M0 -18L14.1 -11.2L17.5 4L7.8 16.2L-7.8 16.2L-17.5 4L-14.1 -11.2Z" fill="none" stroke="#079f56" stroke-width="2"></path></g><g transform="translate(963 547)"><path d="M0 -21L16.4 -13.1L20.5 4.7L9.1 18.9L-9.1 18.9L-20.5 4.7L-16.4 -13.1Z" fill="none" stroke="#079f56" stroke-width="2"></path></g><g transform="translate(244 15)"><path d="M0 -19L14.9 -11.8L18.5 4.2L8.2 17.1L-8.2 17.1L-18.5 4.2L-14.9 -11.8Z" fill="none" stroke="#079f56" stroke-width="2"></path></g><g transform="translate(906 984)"><path d="M0 -18L14.1 -11.2L17.5 4L7.8 16.2L-7.8 16.2L-17.5 4L-14.1 -11.2Z" fill="none" stroke="#079f56" stroke-width="2"></path></g><g transform="translate(1322 907)"><path d="M0 -19L14.9 -11.8L18.5 4.2L8.2 17.1L-8.2 17.1L-18.5 4.2L-14.9 -11.8Z" fill="none" stroke="#079f56" stroke-width="2"></path></g><g transform="translate(744 488)"><path d="M0 -21L16.4 -13.1L20.5 4.7L9.1 18.9L-9.1 18.9L-20.5 4.7L-16.4 -13.1Z" fill="none" stroke="#079f56" stroke-width="2"></path></g><g transform="translate(571 478)"><path d="M0 -23L18 -14.3L22.4 5.1L10 20.7L-10 20.7L-22.4 5.1L-18 -14.3Z" fill="none" stroke="#079f56" stroke-width="2"></path></g><g transform="translate(243 505)"><path d="M0 -18L14.1 -11.2L17.5 4L7.8 16.2L-7.8 16.2L-17.5 4L-14.1 -11.2Z" fill="none" stroke="#079f56" stroke-width="2"></path></g><g transform="translate(1642 705)"><path d="M0 -19L14.9 -11.8L18.5 4.2L8.2 17.1L-8.2 17.1L-18.5 4.2L-14.9 -11.8Z" fill="none" stroke="#079f56" stroke-width="2"></path></g><g transform="translate(1197 765)"><path d="M0 -21L16.4 -13.1L20.5 4.7L9.1 18.9L-9.1 18.9L-20.5 4.7L-16.4 -13.1Z" fill="none" stroke="#079f56" stroke-width="2"></path></g><g transform="translate(33 407)"><path d="M0 -21L16.4 -13.1L20.5 4.7L9.1 18.9L-9.1 18.9L-20.5 4.7L-16.4 -13.1Z" fill="none" stroke="#079f56" stroke-width="2"></path></g><g transform="translate(271 225)"><path d="M0 -23L18 -14.3L22.4 5.1L10 20.7L-10 20.7L-22.4 5.1L-18 -14.3Z" fill="none" stroke="#079f56" stroke-width="2"></path></g><g transform="translate(132 272)"><path d="M0 -21L16.4 -13.1L20.5 4.7L9.1 18.9L-9.1 18.9L-20.5 4.7L-16.4 -13.1Z" fill="none" stroke="#079f56" stroke-width="2"></path></g><g transform="translate(1378 310)"><path d="M0 -18L14.1 -11.2L17.5 4L7.8 16.2L-7.8 16.2L-17.5 4L-14.1 -11.2Z" fill="none" stroke="#079f56" stroke-width="2"></path></g><g transform="translate(359 120)"><path d="M0 -19L14.9 -11.8L18.5 4.2L8.2 17.1L-8.2 17.1L-18.5 4.2L-14.9 -11.8Z" fill="none" stroke="#079f56" stroke-width="2"></path></g><g transform="translate(1286 85)"><path d="M0 -20L15.6 -12.5L19.5 4.5L8.7 18L-8.7 18L-19.5 4.5L-15.6 -12.5Z" fill="none" stroke="#079f56" stroke-width="2"></path></g><g transform="translate(1350 141)"><path d="M0 -21L16.4 -13.1L20.5 4.7L9.1 18.9L-9.1 18.9L-20.5 4.7L-16.4 -13.1Z" fill="none" stroke="#079f56" stroke-width="2"></path></g><g transform="translate(843 112)"><path d="M0 -22L17.2 -13.7L21.4 4.9L9.5 19.8L-9.5 19.8L-21.4 4.9L-17.2 -13.7Z" fill="none" stroke="#079f56" stroke-width="2"></path></g><g transform="translate(1756 84)"><path d="M0 -18L14.1 -11.2L17.5 4L7.8 16.2L-7.8 16.2L-17.5 4L-14.1 -11.2Z" fill="none" stroke="#079f56" stroke-width="2"></path></g><g transform="translate(1231 330)"><path d="M0 -18L14.1 -11.2L17.5 4L7.8 16.2L-7.8 16.2L-17.5 4L-14.1 -11.2Z" fill="none" stroke="#079f56" stroke-width="2"></path></g><g transform="translate(59 67)"><path d="M0 -23L18 -14.3L22.4 5.1L10 20.7L-10 20.7L-22.4 5.1L-18 -14.3Z" fill="none" stroke="#079f56" stroke-width="2"></path></g><g transform="translate(563 94)"><path d="M0 -18L14.1 -11.2L17.5 4L7.8 16.2L-7.8 16.2L-17.5 4L-14.1 -11.2Z" fill="none" stroke="#079f56" stroke-width="2"></path></g><g transform="translate(1222 853)"><path d="M0 -19L14.9 -11.8L18.5 4.2L8.2 17.1L-8.2 17.1L-18.5 4.2L-14.9 -11.8Z" fill="none" stroke="#079f56" stroke-width="2"></path></g><g transform="translate(1525 996)"><path d="M0 -18L14.1 -11.2L17.5 4L7.8 16.2L-7.8 16.2L-17.5 4L-14.1 -11.2Z" fill="none" stroke="#079f56" stroke-width="2"></path></g><g transform="translate(1707 970)"><path d="M0 -23L18 -14.3L22.4 5.1L10 20.7L-10 20.7L-22.4 5.1L-18 -14.3Z" fill="none" stroke="#079f56" stroke-width="2"></path></g><g transform="translate(1382 722)"><path d="M0 -23L18 -14.3L22.4 5.1L10 20.7L-10 20.7L-22.4 5.1L-18 -14.3Z" fill="none" stroke="#079f56" stroke-width="2"></path></g><g transform="translate(1776 639)"><path d="M0 -18L14.1 -11.2L17.5 4L7.8 16.2L-7.8 16.2L-17.5 4L-14.1 -11.2Z" fill="none" stroke="#079f56" stroke-width="2"></path></g><g transform="translate(1335 512)"><path d="M0 -20L15.6 -12.5L19.5 4.5L8.7 18L-8.7 18L-19.5 4.5L-15.6 -12.5Z" fill="none" stroke="#079f56" stroke-width="2"></path></g><g transform="translate(1360 642)"><path d="M0 -20L15.6 -12.5L19.5 4.5L8.7 18L-8.7 18L-19.5 4.5L-15.6 -12.5Z" fill="none" stroke="#079f56" stroke-width="2"></path></g><g transform="translate(593 820)"><path d="M0 -23L18 -14.3L22.4 5.1L10 20.7L-10 20.7L-22.4 5.1L-18 -14.3Z" fill="none" stroke="#079f56" stroke-width="2"></path></g><g transform="translate(1334 564)"><path d="M0 -18L14.1 -11.2L17.5 4L7.8 16.2L-7.8 16.2L-17.5 4L-14.1 -11.2Z" fill="none" stroke="#079f56" stroke-width="2"></path></g><g transform="translate(1410 137)"><path d="M0 -22L17.2 -13.7L21.4 4.9L9.5 19.8L-9.5 19.8L-21.4 4.9L-17.2 -13.7Z" fill="none" stroke="#079f56" stroke-width="2"></path></g><g transform="translate(494 171)"><path d="M0 -20L15.6 -12.5L19.5 4.5L8.7 18L-8.7 18L-19.5 4.5L-15.6 -12.5Z" fill="none" stroke="#079f56" stroke-width="2"></path></g><g transform="translate(637 479)"><path d="M0 -20L15.6 -12.5L19.5 4.5L8.7 18L-8.7 18L-19.5 4.5L-15.6 -12.5Z" fill="none" stroke="#079f56" stroke-width="2"></path></g><g transform="translate(166 574)"><path d="M0 -20L15.6 -12.5L19.5 4.5L8.7 18L-8.7 18L-19.5 4.5L-15.6 -12.5Z" fill="none" stroke="#079f56" stroke-width="2"></path></g><g transform="translate(832 568)"><path d="M0 -20L15.6 -12.5L19.5 4.5L8.7 18L-8.7 18L-19.5 4.5L-15.6 -12.5Z" fill="none" stroke="#079f56" stroke-width="2"></path></g><g transform="translate(884 548)"><path d="M0 -19L14.9 -11.8L18.5 4.2L8.2 17.1L-8.2 17.1L-18.5 4.2L-14.9 -11.8Z" fill="none" stroke="#079f56" stroke-width="2"></path></g><g transform="translate(115 114)"><path d="M0 -18L14.1 -11.2L17.5 4L7.8 16.2L-7.8 16.2L-17.5 4L-14.1 -11.2Z" fill="none" stroke="#079f56" stroke-width="2"></path></g><g transform="translate(1376 810)"><path d="M0 -21L16.4 -13.1L20.5 4.7L9.1 18.9L-9.1 18.9L-20.5 4.7L-16.4 -13.1Z" fill="none" stroke="#079f56" stroke-width="2"></path></g><g transform="translate(783 686)"><path d="M0 -23L18 -14.3L22.4 5.1L10 20.7L-10 20.7L-22.4 5.1L-18 -14.3Z" fill="none" stroke="#079f56" stroke-width="2"></path></g><g transform="translate(1269 683)"><path d="M0 -21L16.4 -13.1L20.5 4.7L9.1 18.9L-9.1 18.9L-20.5 4.7L-16.4 -13.1Z" fill="none" stroke="#079f56" stroke-width="2"></path></g><g transform="translate(1149 888)"><path d="M0 -22L17.2 -13.7L21.4 4.9L9.5 19.8L-9.5 19.8L-21.4 4.9L-17.2 -13.7Z" fill="none" stroke="#079f56" stroke-width="2"></path></g><g transform="translate(282 277)"><path d="M0 -21L16.4 -13.1L20.5 4.7L9.1 18.9L-9.1 18.9L-20.5 4.7L-16.4 -13.1Z" fill="none" stroke="#079f56" stroke-width="2"></path></g><g transform="translate(1131 744)"><path d="M0 -22L17.2 -13.7L21.4 4.9L9.5 19.8L-9.5 19.8L-21.4 4.9L-17.2 -13.7Z" fill="none" stroke="#079f56" stroke-width="2"></path></g><g transform="translate(362 511)"><path d="M0 -22L17.2 -13.7L21.4 4.9L9.5 19.8L-9.5 19.8L-21.4 4.9L-17.2 -13.7Z" fill="none" stroke="#079f56" stroke-width="2"></path></g><g transform="translate(3 513)"><path d="M0 -22L17.2 -13.7L21.4 4.9L9.5 19.8L-9.5 19.8L-21.4 4.9L-17.2 -13.7Z" fill="none" stroke="#079f56" stroke-width="2"></path></g><g transform="translate(1581 851)"><path d="M0 -21L16.4 -13.1L20.5 4.7L9.1 18.9L-9.1 18.9L-20.5 4.7L-16.4 -13.1Z" fill="none" stroke="#079f56" stroke-width="2"></path></g><g transform="translate(1236 720)"><path d="M0 -18L14.1 -11.2L17.5 4L7.8 16.2L-7.8 16.2L-17.5 4L-14.1 -11.2Z" fill="none" stroke="#079f56" stroke-width="2"></path></g><g transform="translate(379 186)"><path d="M0 -21L16.4 -13.1L20.5 4.7L9.1 18.9L-9.1 18.9L-20.5 4.7L-16.4 -13.1Z" fill="none" stroke="#079f56" stroke-width="2"></path></g><g transform="translate(603 193)"><path d="M0 -22L17.2 -13.7L21.4 4.9L9.5 19.8L-9.5 19.8L-21.4 4.9L-17.2 -13.7Z" fill="none" stroke="#079f56" stroke-width="2"></path></g><g transform="translate(1915 778)"><path d="M0 -19L14.9 -11.8L18.5 4.2L8.2 17.1L-8.2 17.1L-18.5 4.2L-14.9 -11.8Z" fill="none" stroke="#079f56" stroke-width="2"></path></g><g transform="translate(790 3)"><path d="M0 -21L16.4 -13.1L20.5 4.7L9.1 18.9L-9.1 18.9L-20.5 4.7L-16.4 -13.1Z" fill="none" stroke="#079f56" stroke-width="2"></path></g><g transform="translate(1465 266)"><path d="M0 -21L16.4 -13.1L20.5 4.7L9.1 18.9L-9.1 18.9L-20.5 4.7L-16.4 -13.1Z" fill="none" stroke="#079f56" stroke-width="2"></path></g><g transform="translate(1039 887)"><path d="M0 -22L17.2 -13.7L21.4 4.9L9.5 19.8L-9.5 19.8L-21.4 4.9L-17.2 -13.7Z" fill="none" stroke="#079f56" stroke-width="2"></path></g><g transform="translate(557 922)"><path d="M0 -23L18 -14.3L22.4 5.1L10 20.7L-10 20.7L-22.4 5.1L-18 -14.3Z" fill="none" stroke="#079f56" stroke-width="2"></path></g><g transform="translate(1603 217)"><path d="M0 -20L15.6 -12.5L19.5 4.5L8.7 18L-8.7 18L-19.5 4.5L-15.6 -12.5Z" fill="none" stroke="#079f56" stroke-width="2"></path></g><g transform="translate(1631 94)"><path d="M0 -21L16.4 -13.1L20.5 4.7L9.1 18.9L-9.1 18.9L-20.5 4.7L-16.4 -13.1Z" fill="none" stroke="#079f56" stroke-width="2"></path></g><g transform="translate(1573 551)"><path d="M0 -21L16.4 -13.1L20.5 4.7L9.1 18.9L-9.1 18.9L-20.5 4.7L-16.4 -13.1Z" fill="none" stroke="#079f56" stroke-width="2"></path></g><g transform="translate(717 87)"><path d="M0 -18L14.1 -11.2L17.5 4L7.8 16.2L-7.8 16.2L-17.5 4L-14.1 -11.2Z" fill="none" stroke="#079f56" stroke-width="2"></path></g><g transform="translate(740 259)"><path d="M0 -19L14.9 -11.8L18.5 4.2L8.2 17.1L-8.2 17.1L-18.5 4.2L-14.9 -11.8Z" fill="none" stroke="#079f56" stroke-width="2"></path></g><g transform="translate(855 997)"><path d="M0 -22L17.2 -13.7L21.4 4.9L9.5 19.8L-9.5 19.8L-21.4 4.9L-17.2 -13.7Z" fill="none" stroke="#079f56" stroke-width="2"></path></g><g transform="translate(689 465)"><path d="M0 -23L18 -14.3L22.4 5.1L10 20.7L-10 20.7L-22.4 5.1L-18 -14.3Z" fill="none" stroke="#079f56" stroke-width="2"></path></g><g transform="translate(1747 9)"><path d="M0 -22L17.2 -13.7L21.4 4.9L9.5 19.8L-9.5 19.8L-21.4 4.9L-17.2 -13.7Z" fill="none" stroke="#079f56" stroke-width="2"></path></g><g transform="translate(1658 464)"><path d="M0 -23L18 -14.3L22.4 5.1L10 20.7L-10 20.7L-22.4 5.1L-18 -14.3Z" fill="none" stroke="#079f56" stroke-width="2"></path></g><g transform="translate(11 836)"><path d="M0 -22L17.2 -13.7L21.4 4.9L9.5 19.8L-9.5 19.8L-21.4 4.9L-17.2 -13.7Z" fill="none" stroke="#079f56" stroke-width="2"></path></g><g transform="translate(874 788)"><path d="M0 -20L15.6 -12.5L19.5 4.5L8.7 18L-8.7 18L-19.5 4.5L-15.6 -12.5Z" fill="none" stroke="#079f56" stroke-width="2"></path></g><g transform="translate(142 706)"><path d="M0 -23L18 -14.3L22.4 5.1L10 20.7L-10 20.7L-22.4 5.1L-18 -14.3Z" fill="none" stroke="#079f56" stroke-width="2"></path></g><g transform="translate(1850 751)"><path d="M0 -19L14.9 -11.8L18.5 4.2L8.2 17.1L-8.2 17.1L-18.5 4.2L-14.9 -11.8Z" fill="none" stroke="#079f56" stroke-width="2"></path></g><g transform="translate(6 456)"><path d="M0 -21L16.4 -13.1L20.5 4.7L9.1 18.9L-9.1 18.9L-20.5 4.7L-16.4 -13.1Z" fill="none" stroke="#079f56" stroke-width="2"></path></g><g transform="translate(1798 745)"><path d="M0 -21L16.4 -13.1L20.5 4.7L9.1 18.9L-9.1 18.9L-20.5 4.7L-16.4 -13.1Z" fill="none" stroke="#079f56" stroke-width="2"></path></g><g transform="translate(641 836)"><path d="M0 -18L14.1 -11.2L17.5 4L7.8 16.2L-7.8 16.2L-17.5 4L-14.1 -11.2Z" fill="none" stroke="#079f56" stroke-width="2"></path></g><g transform="translate(967 284)"><path d="M0 -20L15.6 -12.5L19.5 4.5L8.7 18L-8.7 18L-19.5 4.5L-15.6 -12.5Z" fill="none" stroke="#079f56" stroke-width="2"></path></g><g transform="translate(1765 137)"><path d="M0 -21L16.4 -13.1L20.5 4.7L9.1 18.9L-9.1 18.9L-20.5 4.7L-16.4 -13.1Z" fill="none" stroke="#079f56" stroke-width="2"></path></g><g transform="translate(322 723)"><path d="M0 -18L14.1 -11.2L17.5 4L7.8 16.2L-7.8 16.2L-17.5 4L-14.1 -11.2Z" fill="none" stroke="#079f56" stroke-width="2"></path></g><g transform="translate(92 5)"><path d="M0 -22L17.2 -13.7L21.4 4.9L9.5 19.8L-9.5 19.8L-21.4 4.9L-17.2 -13.7Z" fill="none" stroke="#079f56" stroke-width="2"></path></g><g transform="translate(60 612)"><path d="M0 -18L14.1 -11.2L17.5 4L7.8 16.2L-7.8 16.2L-17.5 4L-14.1 -11.2Z" fill="none" stroke="#079f56" stroke-width="2"></path></g><g transform="translate(915 867)"><path d="M0 -18L14.1 -11.2L17.5 4L7.8 16.2L-7.8 16.2L-17.5 4L-14.1 -11.2Z" fill="none" stroke="#079f56" stroke-width="2"></path></g><g transform="translate(98 911)"><path d="M0 -20L15.6 -12.5L19.5 4.5L8.7 18L-8.7 18L-19.5 4.5L-15.6 -12.5Z" fill="none" stroke="#079f56" stroke-width="2"></path></g><g transform="translate(1909 324)"><path d="M0 -19L14.9 -11.8L18.5 4.2L8.2 17.1L-8.2 17.1L-18.5 4.2L-14.9 -11.8Z" fill="none" stroke="#079f56" stroke-width="2"></path></g><g transform="translate(1668 748)"><path d="M0 -20L15.6 -12.5L19.5 4.5L8.7 18L-8.7 18L-19.5 4.5L-15.6 -12.5Z" fill="none" stroke="#079f56" stroke-width="2"></path></g><g transform="translate(244 820)"><path d="M0 -20L15.6 -12.5L19.5 4.5L8.7 18L-8.7 18L-19.5 4.5L-15.6 -12.5Z" fill="none" stroke="#079f56" stroke-width="2"></path></g><g transform="translate(1652 584)"><path d="M0 -21L16.4 -13.1L20.5 4.7L9.1 18.9L-9.1 18.9L-20.5 4.7L-16.4 -13.1Z" fill="none" stroke="#079f56" stroke-width="2"></path></g><g transform="translate(1281 333)"><path d="M0 -18L14.1 -11.2L17.5 4L7.8 16.2L-7.8 16.2L-17.5 4L-14.1 -11.2Z" fill="none" stroke="#079f56" stroke-width="2"></path></g><g transform="translate(1149 495)"><path d="M0 -21L16.4 -13.1L20.5 4.7L9.1 18.9L-9.1 18.9L-20.5 4.7L-16.4 -13.1Z" fill="none" stroke="#079f56" stroke-width="2"></path></g><g transform="translate(75 310)"><path d="M0 -19L14.9 -11.8L18.5 4.2L8.2 17.1L-8.2 17.1L-18.5 4.2L-14.9 -11.8Z" fill="none" stroke="#079f56" stroke-width="2"></path></g><g transform="translate(900 241)"><path d="M0 -23L18 -14.3L22.4 5.1L10 20.7L-10 20.7L-22.4 5.1L-18 -14.3Z" fill="none" stroke="#079f56" stroke-width="2"></path></g><g transform="translate(1465 154)"><path d="M0 -19L14.9 -11.8L18.5 4.2L8.2 17.1L-8.2 17.1L-18.5 4.2L-14.9 -11.8Z" fill="none" stroke="#079f56" stroke-width="2"></path></g><g transform="translate(53 979)"><path d="M0 -21L16.4 -13.1L20.5 4.7L9.1 18.9L-9.1 18.9L-20.5 4.7L-16.4 -13.1Z" fill="none" stroke="#079f56" stroke-width="2"></path></g><g transform="translate(426 331)"><path d="M0 -22L17.2 -13.7L21.4 4.9L9.5 19.8L-9.5 19.8L-21.4 4.9L-17.2 -13.7Z" fill="none" stroke="#079f56" stroke-width="2"></path></g><g transform="translate(1104 225)"><path d="M0 -18L14.1 -11.2L17.5 4L7.8 16.2L-7.8 16.2L-17.5 4L-14.1 -11.2Z" fill="none" stroke="#079f56" stroke-width="2"></path></g><g transform="translate(1788 288)"><path d="M0 -22L17.2 -13.7L21.4 4.9L9.5 19.8L-9.5 19.8L-21.4 4.9L-17.2 -13.7Z" fill="none" stroke="#079f56" stroke-width="2"></path></g><g transform="translate(1288 733)"><path d="M0 -23L18 -14.3L22.4 5.1L10 20.7L-10 20.7L-22.4 5.1L-18 -14.3Z" fill="none" stroke="#079f56" stroke-width="2"></path></g><g transform="translate(1426 920)"><path d="M0 -18L14.1 -11.2L17.5 4L7.8 16.2L-7.8 16.2L-17.5 4L-14.1 -11.2Z" fill="none" stroke="#079f56" stroke-width="2"></path></g><g transform="translate(1909 376)"><path d="M0 -23L18 -14.3L22.4 5.1L10 20.7L-10 20.7L-22.4 5.1L-18 -14.3Z" fill="none" stroke="#079f56" stroke-width="2"></path></g><g transform="translate(1129 342)"><path d="M0 -20L15.6 -12.5L19.5 4.5L8.7 18L-8.7 18L-19.5 4.5L-15.6 -12.5Z" fill="none" stroke="#079f56" stroke-width="2"></path></g><g transform="translate(1544 720)"><path d="M0 -19L14.9 -11.8L18.5 4.2L8.2 17.1L-8.2 17.1L-18.5 4.2L-14.9 -11.8Z" fill="none" stroke="#079f56" stroke-width="2"></path></g><g transform="translate(652 670)"><path d="M0 -18L14.1 -11.2L17.5 4L7.8 16.2L-7.8 16.2L-17.5 4L-14.1 -11.2Z" fill="none" stroke="#079f56" stroke-width="2"></path></g><g transform="translate(313 995)"><path d="M0 -19L14.9 -11.8L18.5 4.2L8.2 17.1L-8.2 17.1L-18.5 4.2L-14.9 -11.8Z" fill="none" stroke="#079f56" stroke-width="2"></path></g><g transform="translate(1728 804)"><path d="M0 -22L17.2 -13.7L21.4 4.9L9.5 19.8L-9.5 19.8L-21.4 4.9L-17.2 -13.7Z" fill="none" stroke="#079f56" stroke-width="2"></path></g><g transform="translate(766 639)"><path d="M0 -18L14.1 -11.2L17.5 4L7.8 16.2L-7.8 16.2L-17.5 4L-14.1 -11.2Z" fill="none" stroke="#079f56" stroke-width="2"></path></g><g transform="translate(1056 955)"><path d="M0 -18L14.1 -11.2L17.5 4L7.8 16.2L-7.8 16.2L-17.5 4L-14.1 -11.2Z" fill="none" stroke="#079f56" stroke-width="2"></path></g><g transform="translate(997 925)"><path d="M0 -21L16.4 -13.1L20.5 4.7L9.1 18.9L-9.1 18.9L-20.5 4.7L-16.4 -13.1Z" fill="none" stroke="#079f56" stroke-width="2"></path></g><g transform="translate(867 942)"><path d="M0 -18L14.1 -11.2L17.5 4L7.8 16.2L-7.8 16.2L-17.5 4L-14.1 -11.2Z" fill="none" stroke="#079f56" stroke-width="2"></path></g><g transform="translate(299 493)"><path d="M0 -23L18 -14.3L22.4 5.1L10 20.7L-10 20.7L-22.4 5.1L-18 -14.3Z" fill="none" stroke="#079f56" stroke-width="2"></path></g><g transform="translate(666 261)"><path d="M0 -19L14.9 -11.8L18.5 4.2L8.2 17.1L-8.2 17.1L-18.5 4.2L-14.9 -11.8Z" fill="none" stroke="#079f56" stroke-width="2"></path></g><g transform="translate(1397 89)"><path d="M0 -19L14.9 -11.8L18.5 4.2L8.2 17.1L-8.2 17.1L-18.5 4.2L-14.9 -11.8Z" fill="none" stroke="#079f56" stroke-width="2"></path></g><g transform="translate(751 997)"><path d="M0 -18L14.1 -11.2L17.5 4L7.8 16.2L-7.8 16.2L-17.5 4L-14.1 -11.2Z" fill="none" stroke="#079f56" stroke-width="2"></path></g><g transform="translate(1132 40)"><path d="M0 -20L15.6 -12.5L19.5 4.5L8.7 18L-8.7 18L-19.5 4.5L-15.6 -12.5Z" fill="none" stroke="#079f56" stroke-width="2"></path></g><g transform="translate(1558 802)"><path d="M0 -23L18 -14.3L22.4 5.1L10 20.7L-10 20.7L-22.4 5.1L-18 -14.3Z" fill="none" stroke="#079f56" stroke-width="2"></path></g><g transform="translate(1862 168)"><path d="M0 -18L14.1 -11.2L17.5 4L7.8 16.2L-7.8 16.2L-17.5 4L-14.1 -11.2Z" fill="none" stroke="#079f56" stroke-width="2"></path></g><g transform="translate(1062 259)"><path d="M0 -23L18 -14.3L22.4 5.1L10 20.7L-10 20.7L-22.4 5.1L-18 -14.3Z" fill="none" stroke="#079f56" stroke-width="2"></path></g><g transform="translate(1023 720)"><path d="M0 -19L14.9 -11.8L18.5 4.2L8.2 17.1L-8.2 17.1L-18.5 4.2L-14.9 -11.8Z" fill="none" stroke="#079f56" stroke-width="2"></path></g><g transform="translate(1690 3)"><path d="M0 -22L17.2 -13.7L21.4 4.9L9.5 19.8L-9.5 19.8L-21.4 4.9L-17.2 -13.7Z" fill="none" stroke="#079f56" stroke-width="2"></path></g><g transform="translate(12 756)"><path d="M0 -21L16.4 -13.1L20.5 4.7L9.1 18.9L-9.1 18.9L-20.5 4.7L-16.4 -13.1Z" fill="none" stroke="#079f56" stroke-width="2"></path></g><g transform="translate(444 738)"><path d="M0 -22L17.2 -13.7L21.4 4.9L9.5 19.8L-9.5 19.8L-21.4 4.9L-17.2 -13.7Z" fill="none" stroke="#079f56" stroke-width="2"></path></g><g transform="translate(844 414)"><path d="M0 -20L15.6 -12.5L19.5 4.5L8.7 18L-8.7 18L-19.5 4.5L-15.6 -12.5Z" fill="none" stroke="#079f56" stroke-width="2"></path></g><g transform="translate(1526 940)"><path d="M0 -18L14.1 -11.2L17.5 4L7.8 16.2L-7.8 16.2L-17.5 4L-14.1 -11.2Z" fill="none" stroke="#079f56" stroke-width="2"></path></g><g transform="translate(1454 582)"><path d="M0 -23L18 -14.3L22.4 5.1L10 20.7L-10 20.7L-22.4 5.1L-18 -14.3Z" fill="none" stroke="#079f56" stroke-width="2"></path></g><g transform="translate(475 5)"><path d="M0 -22L17.2 -13.7L21.4 4.9L9.5 19.8L-9.5 19.8L-21.4 4.9L-17.2 -13.7Z" fill="none" stroke="#079f56" stroke-width="2"></path></g><g transform="translate(514 82)"><path d="M0 -23L18 -14.3L22.4 5.1L10 20.7L-10 20.7L-22.4 5.1L-18 -14.3Z" fill="none" stroke="#079f56" stroke-width="2"></path></g><g transform="translate(615 987)"><path d="M0 -20L15.6 -12.5L19.5 4.5L8.7 18L-8.7 18L-19.5 4.5L-15.6 -12.5Z" fill="none" stroke="#079f56" stroke-width="2"></path></g><g transform="translate(2 665)"><path d="M0 -20L15.6 -12.5L19.5 4.5L8.7 18L-8.7 18L-19.5 4.5L-15.6 -12.5Z" fill="none" stroke="#079f56" stroke-width="2"></path></g><g transform="translate(1254 634)"><path d="M0 -21L16.4 -13.1L20.5 4.7L9.1 18.9L-9.1 18.9L-20.5 4.7L-16.4 -13.1Z" fill="none" stroke="#079f56" stroke-width="2"></path></g><g transform="translate(1849 6)"><path d="M0 -23L18 -14.3L22.4 5.1L10 20.7L-10 20.7L-22.4 5.1L-18 -14.3Z" fill="none" stroke="#079f56" stroke-width="2"></path></g><g transform="translate(1709 690)"><path d="M0 -21L16.4 -13.1L20.5 4.7L9.1 18.9L-9.1 18.9L-20.5 4.7L-16.4 -13.1Z" fill="none" stroke="#079f56" stroke-width="2"></path></g><g transform="translate(1373 923)"><path d="M0 -18L14.1 -11.2L17.5 4L7.8 16.2L-7.8 16.2L-17.5 4L-14.1 -11.2Z" fill="none" stroke="#079f56" stroke-width="2"></path></g><g transform="translate(560 220)"><path d="M0 -18L14.1 -11.2L17.5 4L7.8 16.2L-7.8 16.2L-17.5 4L-14.1 -11.2Z" fill="none" stroke="#079f56" stroke-width="2"></path></g><g transform="translate(1673 159)"><path d="M0 -21L16.4 -13.1L20.5 4.7L9.1 18.9L-9.1 18.9L-20.5 4.7L-16.4 -13.1Z" fill="none" stroke="#079f56" stroke-width="2"></path></g><g transform="translate(601 129)"><path d="M0 -18L14.1 -11.2L17.5 4L7.8 16.2L-7.8 16.2L-17.5 4L-14.1 -11.2Z" fill="none" stroke="#079f56" stroke-width="2"></path></g><g transform="translate(592 45)"><path d="M0 -18L14.1 -11.2L17.5 4L7.8 16.2L-7.8 16.2L-17.5 4L-14.1 -11.2Z" fill="none" stroke="#079f56" stroke-width="2"></path></g><g transform="translate(1214 478)"><path d="M0 -22L17.2 -13.7L21.4 4.9L9.5 19.8L-9.5 19.8L-21.4 4.9L-17.2 -13.7Z" fill="none" stroke="#079f56" stroke-width="2"></path></g><g transform="translate(1562 60)"><path d="M0 -19L14.9 -11.8L18.5 4.2L8.2 17.1L-8.2 17.1L-18.5 4.2L-14.9 -11.8Z" fill="none" stroke="#079f56" stroke-width="2"></path></g><g transform="translate(487 425)"><path d="M0 -22L17.2 -13.7L21.4 4.9L9.5 19.8L-9.5 19.8L-21.4 4.9L-17.2 -13.7Z" fill="none" stroke="#079f56" stroke-width="2"></path></g><g transform="translate(1912 179)"><path d="M0 -19L14.9 -11.8L18.5 4.2L8.2 17.1L-8.2 17.1L-18.5 4.2L-14.9 -11.8Z" fill="none" stroke="#079f56" stroke-width="2"></path></g><g transform="translate(517 620)"><path d="M0 -23L18 -14.3L22.4 5.1L10 20.7L-10 20.7L-22.4 5.1L-18 -14.3Z" fill="none" stroke="#079f56" stroke-width="2"></path></g><g transform="translate(1036 4)"><path d="M0 -22L17.2 -13.7L21.4 4.9L9.5 19.8L-9.5 19.8L-21.4 4.9L-17.2 -13.7Z" fill="none" stroke="#079f56" stroke-width="2"></path></g><g transform="translate(962 84)"><path d="M0 -19L14.9 -11.8L18.5 4.2L8.2 17.1L-8.2 17.1L-18.5 4.2L-14.9 -11.8Z" fill="none" stroke="#079f56" stroke-width="2"></path></g><g transform="translate(1198 244)"><path d="M0 -20L15.6 -12.5L19.5 4.5L8.7 18L-8.7 18L-19.5 4.5L-15.6 -12.5Z" fill="none" stroke="#079f56" stroke-width="2"></path></g><g transform="translate(1239 56)"><path d="M0 -21L16.4 -13.1L20.5 4.7L9.1 18.9L-9.1 18.9L-20.5 4.7L-16.4 -13.1Z" fill="none" stroke="#079f56" stroke-width="2"></path></g><g transform="translate(390 646)"><path d="M0 -21L16.4 -13.1L20.5 4.7L9.1 18.9L-9.1 18.9L-20.5 4.7L-16.4 -13.1Z" fill="none" stroke="#079f56" stroke-width="2"></path></g><g transform="translate(340 841)"><path d="M0 -20L15.6 -12.5L19.5 4.5L8.7 18L-8.7 18L-19.5 4.5L-15.6 -12.5Z" fill="none" stroke="#079f56" stroke-width="2"></path></g><g transform="translate(1310 231)"><path d="M0 -22L17.2 -13.7L21.4 4.9L9.5 19.8L-9.5 19.8L-21.4 4.9L-17.2 -13.7Z" fill="none" stroke="#079f56" stroke-width="2"></path></g><g transform="translate(470 525)"><path d="M0 -22L17.2 -13.7L21.4 4.9L9.5 19.8L-9.5 19.8L-21.4 4.9L-17.2 -13.7Z" fill="none" stroke="#079f56" stroke-width="2"></path></g><g transform="translate(1334 695)"><path d="M0 -21L16.4 -13.1L20.5 4.7L9.1 18.9L-9.1 18.9L-20.5 4.7L-16.4 -13.1Z" fill="none" stroke="#079f56" stroke-width="2"></path></g><g transform="translate(89 704)"><path d="M0 -20L15.6 -12.5L19.5 4.5L8.7 18L-8.7 18L-19.5 4.5L-15.6 -12.5Z" fill="none" stroke="#079f56" stroke-width="2"></path></g><g transform="translate(1205 428)"><path d="M0 -18L14.1 -11.2L17.5 4L7.8 16.2L-7.8 16.2L-17.5 4L-14.1 -11.2Z" fill="none" stroke="#079f56" stroke-width="2"></path></g><g transform="translate(806 234)"><path d="M0 -19L14.9 -11.8L18.5 4.2L8.2 17.1L-8.2 17.1L-18.5 4.2L-14.9 -11.8Z" fill="none" stroke="#079f56" stroke-width="2"></path></g><g transform="translate(1089 538)"><path d="M0 -23L18 -14.3L22.4 5.1L10 20.7L-10 20.7L-22.4 5.1L-18 -14.3Z" fill="none" stroke="#079f56" stroke-width="2"></path></g><g transform="translate(469 114)"><path d="M0 -22L17.2 -13.7L21.4 4.9L9.5 19.8L-9.5 19.8L-21.4 4.9L-17.2 -13.7Z" fill="none" stroke="#079f56" stroke-width="2"></path></g><g transform="translate(196 349)"><path d="M0 -21L16.4 -13.1L20.5 4.7L9.1 18.9L-9.1 18.9L-20.5 4.7L-16.4 -13.1Z" fill="none" stroke="#079f56" stroke-width="2"></path></g><g transform="translate(364 789)"><path d="M0 -21L16.4 -13.1L20.5 4.7L9.1 18.9L-9.1 18.9L-20.5 4.7L-16.4 -13.1Z" fill="none" stroke="#079f56" stroke-width="2"></path></g><g transform="translate(721 763)"><path d="M0 -22L17.2 -13.7L21.4 4.9L9.5 19.8L-9.5 19.8L-21.4 4.9L-17.2 -13.7Z" fill="none" stroke="#079f56" stroke-width="2"></path></g><g transform="translate(1485 911)"><path d="M0 -21L16.4 -13.1L20.5 4.7L9.1 18.9L-9.1 18.9L-20.5 4.7L-16.4 -13.1Z" fill="none" stroke="#079f56" stroke-width="2"></path></g><g transform="translate(852 655)"><path d="M0 -21L16.4 -13.1L20.5 4.7L9.1 18.9L-9.1 18.9L-20.5 4.7L-16.4 -13.1Z" fill="none" stroke="#079f56" stroke-width="2"></path></g><g transform="translate(1042 419)"><path d="M0 -22L17.2 -13.7L21.4 4.9L9.5 19.8L-9.5 19.8L-21.4 4.9L-17.2 -13.7Z" fill="none" stroke="#079f56" stroke-width="2"></path></g><g transform="translate(1232 170)"><path d="M0 -21L16.4 -13.1L20.5 4.7L9.1 18.9L-9.1 18.9L-20.5 4.7L-16.4 -13.1Z" fill="none" stroke="#079f56" stroke-width="2"></path></g><g transform="translate(1436 998)"><path d="M0 -23L18 -14.3L22.4 5.1L10 20.7L-10 20.7L-22.4 5.1L-18 -14.3Z" fill="none" stroke="#079f56" stroke-width="2"></path></g><g transform="translate(781 157)"><path d="M0 -23L18 -14.3L22.4 5.1L10 20.7L-10 20.7L-22.4 5.1L-18 -14.3Z" fill="none" stroke="#079f56" stroke-width="2"></path></g><g transform="translate(1859 59)"><path d="M0 -18L14.1 -11.2L17.5 4L7.8 16.2L-7.8 16.2L-17.5 4L-14.1 -11.2Z" fill="none" stroke="#079f56" stroke-width="2"></path></g><g transform="translate(1918 861)"><path d="M0 -23L18 -14.3L22.4 5.1L10 20.7L-10 20.7L-22.4 5.1L-18 -14.3Z" fill="none" stroke="#079f56" stroke-width="2"></path></g><g transform="translate(197 614)"><path d="M0 -18L14.1 -11.2L17.5 4L7.8 16.2L-7.8 16.2L-17.5 4L-14.1 -11.2Z" fill="none" stroke="#079f56" stroke-width="2"></path></g><g transform="translate(2 308)"><path d="M0 -22L17.2 -13.7L21.4 4.9L9.5 19.8L-9.5 19.8L-21.4 4.9L-17.2 -13.7Z" fill="none" stroke="#079f56" stroke-width="2"></path></g><g transform="translate(449 919)"><path d="M0 -23L18 -14.3L22.4 5.1L10 20.7L-10 20.7L-22.4 5.1L-18 -14.3Z" fill="none" stroke="#079f56" stroke-width="2"></path></g><g transform="translate(1525 628)"><path d="M0 -19L14.9 -11.8L18.5 4.2L8.2 17.1L-8.2 17.1L-18.5 4.2L-14.9 -11.8Z" fill="none" stroke="#079f56" stroke-width="2"></path></g><g transform="translate(206 914)"><path d="M0 -19L14.9 -11.8L18.5 4.2L8.2 17.1L-8.2 17.1L-18.5 4.2L-14.9 -11.8Z" fill="none" stroke="#079f56" stroke-width="2"></path></g><g transform="translate(1474 2)"><path d="M0 -20L15.6 -12.5L19.5 4.5L8.7 18L-8.7 18L-19.5 4.5L-15.6 -12.5Z" fill="none" stroke="#079f56" stroke-width="2"></path></g><g transform="translate(738 540)"><path d="M0 -22L17.2 -13.7L21.4 4.9L9.5 19.8L-9.5 19.8L-21.4 4.9L-17.2 -13.7Z" fill="none" stroke="#079f56" stroke-width="2"></path></g><g transform="translate(1408 661)"><path d="M0 -23L18 -14.3L22.4 5.1L10 20.7L-10 20.7L-22.4 5.1L-18 -14.3Z" fill="none" stroke="#079f56" stroke-width="2"></path></g><g transform="translate(944 625)"><path d="M0 -18L14.1 -11.2L17.5 4L7.8 16.2L-7.8 16.2L-17.5 4L-14.1 -11.2Z" fill="none" stroke="#079f56" stroke-width="2"></path></g><g transform="translate(1094 877)"><path d="M0 -18L14.1 -11.2L17.5 4L7.8 16.2L-7.8 16.2L-17.5 4L-14.1 -11.2Z" fill="none" stroke="#079f56" stroke-width="2"></path></g><g transform="translate(2 977)"><path d="M0 -22L17.2 -13.7L21.4 4.9L9.5 19.8L-9.5 19.8L-21.4 4.9L-17.2 -13.7Z" fill="none" stroke="#079f56" stroke-width="2"></path></g><g transform="translate(221 450)"><path d="M0 -21L16.4 -13.1L20.5 4.7L9.1 18.9L-9.1 18.9L-20.5 4.7L-16.4 -13.1Z" fill="none" stroke="#079f56" stroke-width="2"></path></g><g transform="translate(1403 188)"><path d="M0 -18L14.1 -11.2L17.5 4L7.8 16.2L-7.8 16.2L-17.5 4L-14.1 -11.2Z" fill="none" stroke="#079f56" stroke-width="2"></path></g><g transform="translate(1683 922)"><path d="M0 -18L14.1 -11.2L17.5 4L7.8 16.2L-7.8 16.2L-17.5 4L-14.1 -11.2Z" fill="none" stroke="#079f56" stroke-width="2"></path></g></g></svg>