<svg id="visual" viewBox="0 0 2000 1000" width="2000" height="1000" xmlns="http://www.w3.org/2000/svg" xmlns:xlink="http://www.w3.org/1999/xlink" version="1.1"><g><g transform="translate(1342 488)"><path d="M0 -37.4L32.4 -18.7L32.4 18.7L0 37.4L-32.4 18.7L-32.4 -18.7Z" fill="none" stroke="#ffffff" stroke-width="2"></path></g><g transform="translate(352 78)"><path d="M0 -29L25.1 -14.5L25.1 14.5L0 29L-25.1 14.5L-25.1 -14.5Z" fill="none" stroke="#ffffff" stroke-width="2"></path></g><g transform="translate(1338 42)"><path d="M0 -29L25.1 -14.5L25.1 14.5L0 29L-25.1 14.5L-25.1 -14.5Z" fill="none" stroke="#ffffff" stroke-width="2"></path></g><g transform="translate(554 613)"><path d="M0 -34L29.4 -17L29.4 17L0 34L-29.4 17L-29.4 -17Z" fill="none" stroke="#ffffff" stroke-width="2"></path></g><g transform="translate(80 942)"><path d="M0 -36L31.2 -18L31.2 18L0 36L-31.2 18L-31.2 -18Z" fill="none" stroke="#ffffff" stroke-width="2"></path></g><g transform="translate(1416 570)"><path d="M0 -35L30.3 -17.5L30.3 17.5L0 35L-30.3 17.5L-30.3 -17.5Z" fill="none" stroke="#ffffff" stroke-width="2"></path></g><g transform="translate(1257 973)"><path d="M0 -36L31.2 -18L31.2 18L0 36L-31.2 18L-31.2 -18Z" fill="none" stroke="#ffffff" stroke-width="2"></path></g><g transform="translate(614 443)"><path d="M0 -36L31.2 -18L31.2 18L0 36L-31.2 18L-31.2 -18Z" fill="none" stroke="#ffffff" stroke-width="2"></path></g><g transform="translate(1319 903)"><path d="M0 -28L24.2 -14L24.2 14L0 28L-24.2 14L-24.2 -14Z" fill="none" stroke="#ffffff" stroke-width="2"></path></g><g transform="translate(463 503)"><path d="M0 -36L31.2 -18L31.2 18L0 36L-31.2 18L-31.2 -18Z" fill="none" stroke="#ffffff" stroke-width="2"></path></g><g transform="translate(437 670)"><path d="M0 -30L26 -15L26 15L0 30L-26 15L-26 -15Z" fill="none" stroke="#ffffff" stroke-width="2"></path></g><g transform="translate(1950 303)"><path d="M0 -32L27.7 -16L27.7 16L0 32L-27.7 16L-27.7 -16Z" fill="none" stroke="#ffffff" stroke-width="2"></path></g><g transform="translate(1783 29)"><path d="M0 -36L31.2 -18L31.2 18L0 36L-31.2 18L-31.2 -18Z" fill="none" stroke="#ffffff" stroke-width="2"></path></g><g transform="translate(295 634)"><path d="M0 -33L28.6 -16.5L28.6 16.5L0 33L-28.6 16.5L-28.6 -16.5Z" fill="none" stroke="#ffffff" stroke-width="2"></path></g><g transform="translate(1475 857)"><path d="M0 -29L25.1 -14.5L25.1 14.5L0 29L-25.1 14.5L-25.1 -14.5Z" fill="none" stroke="#ffffff" stroke-width="2"></path></g><g transform="translate(1014 183)"><path d="M0 -29L25.1 -14.5L25.1 14.5L0 29L-25.1 14.5L-25.1 -14.5Z" fill="none" stroke="#ffffff" stroke-width="2"></path></g><g transform="translate(1128 38)"><path d="M0 -31L26.8 -15.5L26.8 15.5L0 31L-26.8 15.5L-26.8 -15.5Z" fill="none" stroke="#ffffff" stroke-width="2"></path></g><g transform="translate(655 269)"><path d="M0 -28L24.2 -14L24.2 14L0 28L-24.2 14L-24.2 -14Z" fill="none" stroke="#ffffff" stroke-width="2"></path></g><g transform="translate(1556 695)"><path d="M0 -29L25.1 -14.5L25.1 14.5L0 29L-25.1 14.5L-25.1 -14.5Z" fill="none" stroke="#ffffff" stroke-width="2"></path></g><g transform="translate(1618 195)"><path d="M0 -35L30.3 -17.5L30.3 17.5L0 35L-30.3 17.5L-30.3 -17.5Z" fill="none" stroke="#ffffff" stroke-width="2"></path></g><g transform="translate(665 912)"><path d="M0 -28L24.2 -14L24.2 14L0 28L-24.2 14L-24.2 -14Z" fill="none" stroke="#ffffff" stroke-width="2"></path></g><g transform="translate(1339 630)"><path d="M0 -32L27.7 -16L27.7 16L0 32L-27.7 16L-27.7 -16Z" fill="none" stroke="#ffffff" stroke-width="2"></path></g><g transform="translate(1098 572)"><path d="M0 -34L29.4 -17L29.4 17L0 34L-29.4 17L-29.4 -17Z" fill="none" stroke="#ffffff" stroke-width="2"></path></g><g transform="translate(1873 36)"><path d="M0 -33L28.6 -16.5L28.6 16.5L0 33L-28.6 16.5L-28.6 -16.5Z" fill="none" stroke="#ffffff" stroke-width="2"></path></g><g transform="translate(590 895)"><path d="M0 -35L30.3 -17.5L30.3 17.5L0 35L-30.3 17.5L-30.3 -17.5Z" fill="none" stroke="#ffffff" stroke-width="2"></path></g><g transform="translate(716 143)"><path d="M0 -35L30.3 -17.5L30.3 17.5L0 35L-30.3 17.5L-30.3 -17.5Z" fill="none" stroke="#ffffff" stroke-width="2"></path></g><g transform="translate(479 420)"><path d="M0 -33L28.6 -16.5L28.6 16.5L0 33L-28.6 16.5L-28.6 -16.5Z" fill="none" stroke="#ffffff" stroke-width="2"></path></g><g transform="translate(1021 672)"><path d="M0 -30L26 -15L26 15L0 30L-26 15L-26 -15Z" fill="none" stroke="#ffffff" stroke-width="2"></path></g><g transform="translate(209 817)"><path d="M0 -33L28.6 -16.5L28.6 16.5L0 33L-28.6 16.5L-28.6 -16.5Z" fill="none" stroke="#ffffff" stroke-width="2"></path></g><g transform="translate(1847 807)"><path d="M0 -34L29.4 -17L29.4 17L0 34L-29.4 17L-29.4 -17Z" fill="none" stroke="#ffffff" stroke-width="2"></path></g><g transform="translate(1715 267)"><path d="M0 -35L30.3 -17.5L30.3 17.5L0 35L-30.3 17.5L-30.3 -17.5Z" fill="none" stroke="#ffffff" stroke-width="2"></path></g><g transform="translate(59 409)"><path d="M0 -29L25.1 -14.5L25.1 14.5L0 29L-25.1 14.5L-25.1 -14.5Z" fill="none" stroke="#ffffff" stroke-width="2"></path></g><g transform="translate(557 329)"><path d="M0 -33L28.6 -16.5L28.6 16.5L0 33L-28.6 16.5L-28.6 -16.5Z" fill="none" stroke="#ffffff" stroke-width="2"></path></g><g transform="translate(1931 507)"><path d="M0 -30L26 -15L26 15L0 30L-26 15L-26 -15Z" fill="none" stroke="#ffffff" stroke-width="2"></path></g><g transform="translate(1623 95)"><path d="M0 -35L30.3 -17.5L30.3 17.5L0 35L-30.3 17.5L-30.3 -17.5Z" fill="none" stroke="#ffffff" stroke-width="2"></path></g><g transform="translate(236 746)"><path d="M0 -28L24.2 -14L24.2 14L0 28L-24.2 14L-24.2 -14Z" fill="none" stroke="#ffffff" stroke-width="2"></path></g><g transform="translate(774 61)"><path d="M0 -36L31.2 -18L31.2 18L0 36L-31.2 18L-31.2 -18Z" fill="none" stroke="#ffffff" stroke-width="2"></path></g><g transform="translate(568 101)"><path d="M0 -31L26.8 -15.5L26.8 15.5L0 31L-26.8 15.5L-26.8 -15.5Z" fill="none" stroke="#ffffff" stroke-width="2"></path></g><g transform="translate(100 69)"><path d="M0 -32L27.7 -16L27.7 16L0 32L-27.7 16L-27.7 -16Z" fill="none" stroke="#ffffff" stroke-width="2"></path></g><g transform="translate(486 178)"><path d="M0 -36L31.2 -18L31.2 18L0 36L-31.2 18L-31.2 -18Z" fill="none" stroke="#ffffff" stroke-width="2"></path></g><g transform="translate(1501 214)"><path d="M0 -28L24.2 -14L24.2 14L0 28L-24.2 14L-24.2 -14Z" fill="none" stroke="#ffffff" stroke-width="2"></path></g><g transform="translate(764 591)"><path d="M0 -29L25.1 -14.5L25.1 14.5L0 29L-25.1 14.5L-25.1 -14.5Z" fill="none" stroke="#ffffff" stroke-width="2"></path></g><g transform="translate(1136 280)"><path d="M0 -36L31.2 -18L31.2 18L0 36L-31.2 18L-31.2 -18Z" fill="none" stroke="#ffffff" stroke-width="2"></path></g><g transform="translate(879 803)"><path d="M0 -36L31.2 -18L31.2 18L0 36L-31.2 18L-31.2 -18Z" fill="none" stroke="#ffffff" stroke-width="2"></path></g><g transform="translate(1870 976)"><path d="M0 -33L28.6 -16.5L28.6 16.5L0 33L-28.6 16.5L-28.6 -16.5Z" fill="none" stroke="#ffffff" stroke-width="2"></path></g><g transform="translate(879 974)"><path d="M0 -32L27.7 -16L27.7 16L0 32L-27.7 16L-27.7 -16Z" fill="none" stroke="#ffffff" stroke-width="2"></path></g><g transform="translate(1409 107)"><path d="M0 -29L25.1 -14.5L25.1 14.5L0 29L-25.1 14.5L-25.1 -14.5Z" fill="none" stroke="#ffffff" stroke-width="2"></path></g><g transform="translate(6 77)"><path d="M0 -28L24.2 -14L24.2 14L0 28L-24.2 14L-24.2 -14Z" fill="none" stroke="#ffffff" stroke-width="2"></path></g><g transform="translate(1636 680)"><path d="M0 -35L30.3 -17.5L30.3 17.5L0 35L-30.3 17.5L-30.3 -17.5Z" fill="none" stroke="#ffffff" stroke-width="2"></path></g><g transform="translate(341 899)"><path d="M0 -36L31.2 -18L31.2 18L0 36L-31.2 18L-31.2 -18Z" fill="none" stroke="#ffffff" stroke-width="2"></path></g><g transform="translate(1700 894)"><path d="M0 -29L25.1 -14.5L25.1 14.5L0 29L-25.1 14.5L-25.1 -14.5Z" fill="none" stroke="#ffffff" stroke-width="2"></path></g><g transform="translate(1110 425)"><path d="M0 -34L29.4 -17L29.4 17L0 34L-29.4 17L-29.4 -17Z" fill="none" stroke="#ffffff" stroke-width="2"></path></g><g transform="translate(974 425)"><path d="M0 -29L25.1 -14.5L25.1 14.5L0 29L-25.1 14.5L-25.1 -14.5Z" fill="none" stroke="#ffffff" stroke-width="2"></path></g><g transform="translate(173 173)"><path d="M0 -31L26.8 -15.5L26.8 15.5L0 31L-26.8 15.5L-26.8 -15.5Z" fill="none" stroke="#ffffff" stroke-width="2"></path></g><g transform="translate(855 683)"><path d="M0 -35L30.3 -17.5L30.3 17.5L0 35L-30.3 17.5L-30.3 -17.5Z" fill="none" stroke="#ffffff" stroke-width="2"></path></g><g transform="translate(1694 622)"><path d="M0 -30L26 -15L26 15L0 30L-26 15L-26 -15Z" fill="none" stroke="#ffffff" stroke-width="2"></path></g><g transform="translate(1883 268)"><path d="M0 -35L30.3 -17.5L30.3 17.5L0 35L-30.3 17.5L-30.3 -17.5Z" fill="none" stroke="#ffffff" stroke-width="2"></path></g><g transform="translate(924 287)"><path d="M0 -35L30.3 -17.5L30.3 17.5L0 35L-30.3 17.5L-30.3 -17.5Z" fill="none" stroke="#ffffff" stroke-width="2"></path></g><g transform="translate(1505 481)"><path d="M0 -33L28.6 -16.5L28.6 16.5L0 33L-28.6 16.5L-28.6 -16.5Z" fill="none" stroke="#ffffff" stroke-width="2"></path></g><g transform="translate(678 52)"><path d="M0 -35L30.3 -17.5L30.3 17.5L0 35L-30.3 17.5L-30.3 -17.5Z" fill="none" stroke="#ffffff" stroke-width="2"></path></g><g transform="translate(1936 384)"><path d="M0 -36L31.2 -18L31.2 18L0 36L-31.2 18L-31.2 -18Z" fill="none" stroke="#ffffff" stroke-width="2"></path></g><g transform="translate(1093 784)"><path d="M0 -34L29.4 -17L29.4 17L0 34L-29.4 17L-29.4 -17Z" fill="none" stroke="#ffffff" stroke-width="2"></path></g><g transform="translate(693 551)"><path d="M0 -28L24.2 -14L24.2 14L0 28L-24.2 14L-24.2 -14Z" fill="none" stroke="#ffffff" stroke-width="2"></path></g><g transform="translate(1485 34)"><path d="M0 -31L26.8 -15.5L26.8 15.5L0 31L-26.8 15.5L-26.8 -15.5Z" fill="none" stroke="#ffffff" stroke-width="2"></path></g><g transform="translate(860 880)"><path d="M0 -33L28.6 -16.5L28.6 16.5L0 33L-28.6 16.5L-28.6 -16.5Z" fill="none" stroke="#ffffff" stroke-width="2"></path></g><g transform="translate(59 823)"><path d="M0 -32L27.7 -16L27.7 16L0 32L-27.7 16L-27.7 -16Z" fill="none" stroke="#ffffff" stroke-width="2"></path></g><g transform="translate(1510 369)"><path d="M0 -31L26.8 -15.5L26.8 15.5L0 31L-26.8 15.5L-26.8 -15.5Z" fill="none" stroke="#ffffff" stroke-width="2"></path></g><g transform="translate(973 983)"><path d="M0 -30L26 -15L26 15L0 30L-26 15L-26 -15Z" fill="none" stroke="#ffffff" stroke-width="2"></path></g><g transform="translate(1547 991)"><path d="M0 -29L25.1 -14.5L25.1 14.5L0 29L-25.1 14.5L-25.1 -14.5Z" fill="none" stroke="#ffffff" stroke-width="2"></path></g><g transform="translate(851 395)"><path d="M0 -29L25.1 -14.5L25.1 14.5L0 29L-25.1 14.5L-25.1 -14.5Z" fill="none" stroke="#ffffff" stroke-width="2"></path></g><g transform="translate(846 229)"><path d="M0 -32L27.7 -16L27.7 16L0 32L-27.7 16L-27.7 -16Z" fill="none" stroke="#ffffff" stroke-width="2"></path></g><g transform="translate(672 801)"><path d="M0 -35L30.3 -17.5L30.3 17.5L0 35L-30.3 17.5L-30.3 -17.5Z" fill="none" stroke="#ffffff" stroke-width="2"></path></g><g transform="translate(971 4)"><path d="M0 -32L27.7 -16L27.7 16L0 32L-27.7 16L-27.7 -16Z" fill="none" stroke="#ffffff" stroke-width="2"></path></g><g transform="translate(1318 397)"><path d="M0 -36L31.2 -18L31.2 18L0 36L-31.2 18L-31.2 -18Z" fill="none" stroke="#ffffff" stroke-width="2"></path></g><g transform="translate(1343 315)"><path d="M0 -31L26.8 -15.5L26.8 15.5L0 31L-26.8 15.5L-26.8 -15.5Z" fill="none" stroke="#ffffff" stroke-width="2"></path></g><g transform="translate(1773 766)"><path d="M0 -32L27.7 -16L27.7 16L0 32L-27.7 16L-27.7 -16Z" fill="none" stroke="#ffffff" stroke-width="2"></path></g><g transform="translate(174 406)"><path d="M0 -30L26 -15L26 15L0 30L-26 15L-26 -15Z" fill="none" stroke="#ffffff" stroke-width="2"></path></g><g transform="translate(1839 712)"><path d="M0 -34L29.4 -17L29.4 17L0 34L-29.4 17L-29.4 -17Z" fill="none" stroke="#ffffff" stroke-width="2"></path></g><g transform="translate(1590 799)"><path d="M0 -34L29.4 -17L29.4 17L0 34L-29.4 17L-29.4 -17Z" fill="none" stroke="#ffffff" stroke-width="2"></path></g><g transform="translate(1030 352)"><path d="M0 -30L26 -15L26 15L0 30L-26 15L-26 -15Z" fill="none" stroke="#ffffff" stroke-width="2"></path></g><g transform="translate(1815 532)"><path d="M0 -33L28.6 -16.5L28.6 16.5L0 33L-28.6 16.5L-28.6 -16.5Z" fill="none" stroke="#ffffff" stroke-width="2"></path></g><g transform="translate(787 307)"><path d="M0 -30L26 -15L26 15L0 30L-26 15L-26 -15Z" fill="none" stroke="#ffffff" stroke-width="2"></path></g><g transform="translate(39 304)"><path d="M0 -35L30.3 -17.5L30.3 17.5L0 35L-30.3 17.5L-30.3 -17.5Z" fill="none" stroke="#ffffff" stroke-width="2"></path></g><g transform="translate(332 298)"><path d="M0 -32L27.7 -16L27.7 16L0 32L-27.7 16L-27.7 -16Z" fill="none" stroke="#ffffff" stroke-width="2"></path></g><g transform="translate(70 587)"><path d="M0 -31L26.8 -15.5L26.8 15.5L0 31L-26.8 15.5L-26.8 -15.5Z" fill="none" stroke="#ffffff" stroke-width="2"></path></g><g transform="translate(1400 955)"><path d="M0 -30L26 -15L26 15L0 30L-26 15L-26 -15Z" fill="none" stroke="#ffffff" stroke-width="2"></path></g><g transform="translate(934 858)"><path d="M0 -33L28.6 -16.5L28.6 16.5L0 33L-28.6 16.5L-28.6 -16.5Z" fill="none" stroke="#ffffff" stroke-width="2"></path></g><g transform="translate(1106 931)"><path d="M0 -30L26 -15L26 15L0 30L-26 15L-26 -15Z" fill="none" stroke="#ffffff" stroke-width="2"></path></g><g transform="translate(122 286)"><path d="M0 -29L25.1 -14.5L25.1 14.5L0 29L-25.1 14.5L-25.1 -14.5Z" fill="none" stroke="#ffffff" stroke-width="2"></path></g><g transform="translate(1758 147)"><path d="M0 -35L30.3 -17.5L30.3 17.5L0 35L-30.3 17.5L-30.3 -17.5Z" fill="none" stroke="#ffffff" stroke-width="2"></path></g><g transform="translate(1515 761)"><path d="M0 -32L27.7 -16L27.7 16L0 32L-27.7 16L-27.7 -16Z" fill="none" stroke="#ffffff" stroke-width="2"></path></g><g transform="translate(286 804)"><path d="M0 -32L27.7 -16L27.7 16L0 32L-27.7 16L-27.7 -16Z" fill="none" stroke="#ffffff" stroke-width="2"></path></g><g transform="translate(343 204)"><path d="M0 -34L29.4 -17L29.4 17L0 34L-29.4 17L-29.4 -17Z" fill="none" stroke="#ffffff" stroke-width="2"></path></g><g transform="translate(1223 308)"><path d="M0 -32L27.7 -16L27.7 16L0 32L-27.7 16L-27.7 -16Z" fill="none" stroke="#ffffff" stroke-width="2"></path></g><g transform="translate(51 737)"><path d="M0 -36L31.2 -18L31.2 18L0 36L-31.2 18L-31.2 -18Z" fill="none" stroke="#ffffff" stroke-width="2"></path></g><g transform="translate(1538 564)"><path d="M0 -29L25.1 -14.5L25.1 14.5L0 29L-25.1 14.5L-25.1 -14.5Z" fill="none" stroke="#ffffff" stroke-width="2"></path></g><g transform="translate(1598 471)"><path d="M0 -32L27.7 -16L27.7 16L0 32L-27.7 16L-27.7 -16Z" fill="none" stroke="#ffffff" stroke-width="2"></path></g><g transform="translate(1796 308)"><path d="M0 -35L30.3 -17.5L30.3 17.5L0 35L-30.3 17.5L-30.3 -17.5Z" fill="none" stroke="#ffffff" stroke-width="2"></path></g><g transform="translate(1237 102)"><path d="M0 -31L26.8 -15.5L26.8 15.5L0 31L-26.8 15.5L-26.8 -15.5Z" fill="none" stroke="#ffffff" stroke-width="2"></path></g><g transform="translate(474 900)"><path d="M0 -30L26 -15L26 15L0 30L-26 15L-26 -15Z" fill="none" stroke="#ffffff" stroke-width="2"></path></g><g transform="translate(1992 901)"><path d="M0 -35L30.3 -17.5L30.3 17.5L0 35L-30.3 17.5L-30.3 -17.5Z" fill="none" stroke="#ffffff" stroke-width="2"></path></g><g transform="translate(790 506)"><path d="M0 -30L26 -15L26 15L0 30L-26 15L-26 -15Z" fill="none" stroke="#ffffff" stroke-width="2"></path></g><g transform="translate(265 109)"><path d="M0 -28L24.2 -14L24.2 14L0 28L-24.2 14L-24.2 -14Z" fill="none" stroke="#ffffff" stroke-width="2"></path></g><g transform="translate(1754 470)"><path d="M0 -31L26.8 -15.5L26.8 15.5L0 31L-26.8 15.5L-26.8 -15.5Z" fill="none" stroke="#ffffff" stroke-width="2"></path></g><g transform="translate(1220 900)"><path d="M0 -28L24.2 -14L24.2 14L0 28L-24.2 14L-24.2 -14Z" fill="none" stroke="#ffffff" stroke-width="2"></path></g><g transform="translate(1335 779)"><path d="M0 -35L30.3 -17.5L30.3 17.5L0 35L-30.3 17.5L-30.3 -17.5Z" fill="none" stroke="#ffffff" stroke-width="2"></path></g><g transform="translate(118 694)"><path d="M0 -32L27.7 -16L27.7 16L0 32L-27.7 16L-27.7 -16Z" fill="none" stroke="#ffffff" stroke-width="2"></path></g><g transform="translate(1020 260)"><path d="M0 -36L31.2 -18L31.2 18L0 36L-31.2 18L-31.2 -18Z" fill="none" stroke="#ffffff" stroke-width="2"></path></g><g transform="translate(519 750)"><path d="M0 -32L27.7 -16L27.7 16L0 32L-27.7 16L-27.7 -16Z" fill="none" stroke="#ffffff" stroke-width="2"></path></g><g transform="translate(1983 676)"><path d="M0 -32L27.7 -16L27.7 16L0 32L-27.7 16L-27.7 -16Z" fill="none" stroke="#ffffff" stroke-width="2"></path></g><g transform="translate(415 323)"><path d="M0 -32L27.7 -16L27.7 16L0 32L-27.7 16L-27.7 -16Z" fill="none" stroke="#ffffff" stroke-width="2"></path></g><g transform="translate(990 87)"><path d="M0 -35L30.3 -17.5L30.3 17.5L0 35L-30.3 17.5L-30.3 -17.5Z" fill="none" stroke="#ffffff" stroke-width="2"></path></g><g transform="translate(1862 123)"><path d="M0 -31L26.8 -15.5L26.8 15.5L0 31L-26.8 15.5L-26.8 -15.5Z" fill="none" stroke="#ffffff" stroke-width="2"></path></g><g transform="translate(1629 569)"><path d="M0 -35L30.3 -17.5L30.3 17.5L0 35L-30.3 17.5L-30.3 -17.5Z" fill="none" stroke="#ffffff" stroke-width="2"></path></g><g transform="translate(897 153)"><path d="M0 -29L25.1 -14.5L25.1 14.5L0 29L-25.1 14.5L-25.1 -14.5Z" fill="none" stroke="#ffffff" stroke-width="2"></path></g><g transform="translate(8 662)"><path d="M0 -28L24.2 -14L24.2 14L0 28L-24.2 14L-24.2 -14Z" fill="none" stroke="#ffffff" stroke-width="2"></path></g><g transform="translate(161 918)"><path d="M0 -35L30.3 -17.5L30.3 17.5L0 35L-30.3 17.5L-30.3 -17.5Z" fill="none" stroke="#ffffff" stroke-width="2"></path></g><g transform="translate(1236 459)"><path d="M0 -33L28.6 -16.5L28.6 16.5L0 33L-28.6 16.5L-28.6 -16.5Z" fill="none" stroke="#ffffff" stroke-width="2"></path></g><g transform="translate(1689 796)"><path d="M0 -30L26 -15L26 15L0 30L-26 15L-26 -15Z" fill="none" stroke="#ffffff" stroke-width="2"></path></g><g transform="translate(731 722)"><path d="M0 -34L29.4 -17L29.4 17L0 34L-29.4 17L-29.4 -17Z" fill="none" stroke="#ffffff" stroke-width="2"></path></g><g transform="translate(182 607)"><path d="M0 -32L27.7 -16L27.7 16L0 32L-27.7 16L-27.7 -16Z" fill="none" stroke="#ffffff" stroke-width="2"></path></g><g transform="translate(948 593)"><path d="M0 -28L24.2 -14L24.2 14L0 28L-24.2 14L-24.2 -14Z" fill="none" stroke="#ffffff" stroke-width="2"></path></g><g transform="translate(1591 389)"><path d="M0 -31L26.8 -15.5L26.8 15.5L0 31L-26.8 15.5L-26.8 -15.5Z" fill="none" stroke="#ffffff" stroke-width="2"></path></g><g transform="translate(1220 788)"><path d="M0 -29L25.1 -14.5L25.1 14.5L0 29L-25.1 14.5L-25.1 -14.5Z" fill="none" stroke="#ffffff" stroke-width="2"></path></g><g transform="translate(1426 262)"><path d="M0 -30L26 -15L26 15L0 30L-26 15L-26 -15Z" fill="none" stroke="#ffffff" stroke-width="2"></path></g><g transform="translate(389 601)"><path d="M0 -33L28.6 -16.5L28.6 16.5L0 33L-28.6 16.5L-28.6 -16.5Z" fill="none" stroke="#ffffff" stroke-width="2"></path></g><g transform="translate(728 220)"><path d="M0 -30L26 -15L26 15L0 30L-26 15L-26 -15Z" fill="none" stroke="#ffffff" stroke-width="2"></path></g><g transform="translate(1107 149)"><path d="M0 -29L25.1 -14.5L25.1 14.5L0 29L-25.1 14.5L-25.1 -14.5Z" fill="none" stroke="#ffffff" stroke-width="2"></path></g><g transform="translate(382 471)"><path d="M0 -28L24.2 -14L24.2 14L0 28L-24.2 14L-24.2 -14Z" fill="none" stroke="#ffffff" stroke-width="2"></path></g><g transform="translate(529 35)"><path d="M0 -29L25.1 -14.5L25.1 14.5L0 29L-25.1 14.5L-25.1 -14.5Z" fill="none" stroke="#ffffff" stroke-width="2"></path></g><g transform="translate(665 634)"><path d="M0 -35L30.3 -17.5L30.3 17.5L0 35L-30.3 17.5L-30.3 -17.5Z" fill="none" stroke="#ffffff" stroke-width="2"></path></g><g transform="translate(1949 206)"><path d="M0 -33L28.6 -16.5L28.6 16.5L0 33L-28.6 16.5L-28.6 -16.5Z" fill="none" stroke="#ffffff" stroke-width="2"></path></g><g transform="translate(1111 669)"><path d="M0 -29L25.1 -14.5L25.1 14.5L0 29L-25.1 14.5L-25.1 -14.5Z" fill="none" stroke="#ffffff" stroke-width="2"></path></g><g transform="translate(243 244)"><path d="M0 -36L31.2 -18L31.2 18L0 36L-31.2 18L-31.2 -18Z" fill="none" stroke="#ffffff" stroke-width="2"></path></g><g transform="translate(1724 357)"><path d="M0 -29L25.1 -14.5L25.1 14.5L0 29L-25.1 14.5L-25.1 -14.5Z" fill="none" stroke="#ffffff" stroke-width="2"></path></g><g transform="translate(1821 887)"><path d="M0 -30L26 -15L26 15L0 30L-26 15L-26 -15Z" fill="none" stroke="#ffffff" stroke-width="2"></path></g><g transform="translate(419 988)"><path d="M0 -34L29.4 -17L29.4 17L0 34L-29.4 17L-29.4 -17Z" fill="none" stroke="#ffffff" stroke-width="2"></path></g><g transform="translate(1580 21)"><path d="M0 -30L26 -15L26 15L0 30L-26 15L-26 -15Z" fill="none" stroke="#ffffff" stroke-width="2"></path></g><g transform="translate(695 364)"><path d="M0 -34L29.4 -17L29.4 17L0 34L-29.4 17L-29.4 -17Z" fill="none" stroke="#ffffff" stroke-width="2"></path></g><g transform="translate(1735 554)"><path d="M0 -30L26 -15L26 15L0 30L-26 15L-26 -15Z" fill="none" stroke="#ffffff" stroke-width="2"></path></g><g transform="translate(1416 756)"><path d="M0 -33L28.6 -16.5L28.6 16.5L0 33L-28.6 16.5L-28.6 -16.5Z" fill="none" stroke="#ffffff" stroke-width="2"></path></g><g transform="translate(191 14)"><path d="M0 -35L30.3 -17.5L30.3 17.5L0 35L-30.3 17.5L-30.3 -17.5Z" fill="none" stroke="#ffffff" stroke-width="2"></path></g><g transform="translate(1951 22)"><path d="M0 -31L26.8 -15.5L26.8 15.5L0 31L-26.8 15.5L-26.8 -15.5Z" fill="none" stroke="#ffffff" stroke-width="2"></path></g><g transform="translate(1178 594)"><path d="M0 -29L25.1 -14.5L25.1 14.5L0 29L-25.1 14.5L-25.1 -14.5Z" fill="none" stroke="#ffffff" stroke-width="2"></path></g><g transform="translate(250 915)"><path d="M0 -30L26 -15L26 15L0 30L-26 15L-26 -15Z" fill="none" stroke="#ffffff" stroke-width="2"></path></g><g transform="translate(1387 866)"><path d="M0 -31L26.8 -15.5L26.8 15.5L0 31L-26.8 15.5L-26.8 -15.5Z" fill="none" stroke="#ffffff" stroke-width="2"></path></g><g transform="translate(744 837)"><path d="M0 -30L26 -15L26 15L0 30L-26 15L-26 -15Z" fill="none" stroke="#ffffff" stroke-width="2"></path></g><g transform="translate(899 480)"><path d="M0 -29L25.1 -14.5L25.1 14.5L0 29L-25.1 14.5L-25.1 -14.5Z" fill="none" stroke="#ffffff" stroke-width="2"></path></g><g transform="translate(188 514)"><path d="M0 -29L25.1 -14.5L25.1 14.5L0 29L-25.1 14.5L-25.1 -14.5Z" fill="none" stroke="#ffffff" stroke-width="2"></path></g><g transform="translate(129 769)"><path d="M0 -31L26.8 -15.5L26.8 15.5L0 31L-26.8 15.5L-26.8 -15.5Z" fill="none" stroke="#ffffff" stroke-width="2"></path></g><g transform="translate(12 981)"><path d="M0 -34L29.4 -17L29.4 17L0 34L-29.4 17L-29.4 -17Z" fill="none" stroke="#ffffff" stroke-width="2"></path></g><g transform="translate(1343 196)"><path d="M0 -28L24.2 -14L24.2 14L0 28L-24.2 14L-24.2 -14Z" fill="none" stroke="#ffffff" stroke-width="2"></path></g><g transform="translate(1199 218)"><path d="M0 -30L26 -15L26 15L0 30L-26 15L-26 -15Z" fill="none" stroke="#ffffff" stroke-width="2"></path></g><g transform="translate(296 25)"><path d="M0 -35L30.3 -17.5L30.3 17.5L0 35L-30.3 17.5L-30.3 -17.5Z" fill="none" stroke="#ffffff" stroke-width="2"></path></g><g transform="translate(286 486)"><path d="M0 -34L29.4 -17L29.4 17L0 34L-29.4 17L-29.4 -17Z" fill="none" stroke="#ffffff" stroke-width="2"></path></g><g transform="translate(616 2)"><path d="M0 -35L30.3 -17.5L30.3 17.5L0 35L-30.3 17.5L-30.3 -17.5Z" fill="none" stroke="#ffffff" stroke-width="2"></path></g><g transform="translate(1554 287)"><path d="M0 -32L27.7 -16L27.7 16L0 32L-27.7 16L-27.7 -16Z" fill="none" stroke="#ffffff" stroke-width="2"></path></g><g transform="translate(343 708)"><path d="M0 -32L27.7 -16L27.7 16L0 32L-27.7 16L-27.7 -16Z" fill="none" stroke="#ffffff" stroke-width="2"></path></g><g transform="translate(925 733)"><path d="M0 -29L25.1 -14.5L25.1 14.5L0 29L-25.1 14.5L-25.1 -14.5Z" fill="none" stroke="#ffffff" stroke-width="2"></path></g><g transform="translate(537 519)"><path d="M0 -35L30.3 -17.5L30.3 17.5L0 35L-30.3 17.5L-30.3 -17.5Z" fill="none" stroke="#ffffff" stroke-width="2"></path></g><g transform="translate(1278 684)"><path d="M0 -30L26 -15L26 15L0 30L-26 15L-26 -15Z" fill="none" stroke="#ffffff" stroke-width="2"></path></g><g transform="translate(1760 678)"><path d="M0 -35L30.3 -17.5L30.3 17.5L0 35L-30.3 17.5L-30.3 -17.5Z" fill="none" stroke="#ffffff" stroke-width="2"></path></g><g transform="translate(1517 135)"><path d="M0 -30L26 -15L26 15L0 30L-26 15L-26 -15Z" fill="none" stroke="#ffffff" stroke-width="2"></path></g><g transform="translate(237 363)"><path d="M0 -31L26.8 -15.5L26.8 15.5L0 31L-26.8 15.5L-26.8 -15.5Z" fill="none" stroke="#ffffff" stroke-width="2"></path></g><g transform="translate(1266 534)"><path d="M0 -34L29.4 -17L29.4 17L0 34L-29.4 17L-29.4 -17Z" fill="none" stroke="#ffffff" stroke-width="2"></path></g><g transform="translate(322 383)"><path d="M0 -32L27.7 -16L27.7 16L0 32L-27.7 16L-27.7 -16Z" fill="none" stroke="#ffffff" stroke-width="2"></path></g><g transform="translate(1036 879)"><path d="M0 -36L31.2 -18L31.2 18L0 36L-31.2 18L-31.2 -18Z" fill="none" stroke="#ffffff" stroke-width="2"></path></g><g transform="translate(1697 26)"><path d="M0 -32L27.7 -16L27.7 16L0 32L-27.7 16L-27.7 -16Z" fill="none" stroke="#ffffff" stroke-width="2"></path></g><g transform="translate(57 136)"><path d="M0 -33L28.6 -16.5L28.6 16.5L0 33L-28.6 16.5L-28.6 -16.5Z" fill="none" stroke="#ffffff" stroke-width="2"></path></g><g transform="translate(578 981)"><path d="M0 -28L24.2 -14L24.2 14L0 28L-24.2 14L-24.2 -14Z" fill="none" stroke="#ffffff" stroke-width="2"></path></g><g transform="translate(493 276)"><path d="M0 -31L26.8 -15.5L26.8 15.5L0 31L-26.8 15.5L-26.8 -15.5Z" fill="none" stroke="#ffffff" stroke-width="2"></path></g><g transform="translate(1844 620)"><path d="M0 -28L24.2 -14L24.2 14L0 28L-24.2 14L-24.2 -14Z" fill="none" stroke="#ffffff" stroke-width="2"></path></g><g transform="translate(1499 643)"><path d="M0 -28L24.2 -14L24.2 14L0 28L-24.2 14L-24.2 -14Z" fill="none" stroke="#ffffff" stroke-width="2"></path></g><g transform="translate(1007 541)"><path d="M0 -30L26 -15L26 15L0 30L-26 15L-26 -15Z" fill="none" stroke="#ffffff" stroke-width="2"></path></g><g transform="translate(615 563)"><path d="M0 -28L24.2 -14L24.2 14L0 28L-24.2 14L-24.2 -14Z" fill="none" stroke="#ffffff" stroke-width="2"></path></g><g transform="translate(413 159)"><path d="M0 -31L26.8 -15.5L26.8 15.5L0 31L-26.8 15.5L-26.8 -15.5Z" fill="none" stroke="#ffffff" stroke-width="2"></path></g><g transform="translate(850 75)"><path d="M0 -35L30.3 -17.5L30.3 17.5L0 35L-30.3 17.5L-30.3 -17.5Z" fill="none" stroke="#ffffff" stroke-width="2"></path></g><g transform="translate(1765 938)"><path d="M0 -30L26 -15L26 15L0 30L-26 15L-26 -15Z" fill="none" stroke="#ffffff" stroke-width="2"></path></g><g transform="translate(401 781)"><path d="M0 -32L27.7 -16L27.7 16L0 32L-27.7 16L-27.7 -16Z" fill="none" stroke="#ffffff" stroke-width="2"></path></g><g transform="translate(332 990)"><path d="M0 -28L24.2 -14L24.2 14L0 28L-24.2 14L-24.2 -14Z" fill="none" stroke="#ffffff" stroke-width="2"></path></g><g transform="translate(800 950)"><path d="M0 -35L30.3 -17.5L30.3 17.5L0 35L-30.3 17.5L-30.3 -17.5Z" fill="none" stroke="#ffffff" stroke-width="2"></path></g><g transform="translate(653 185)"><path d="M0 -33L28.6 -16.5L28.6 16.5L0 33L-28.6 16.5L-28.6 -16.5Z" fill="none" stroke="#ffffff" stroke-width="2"></path></g><g transform="translate(1229 19)"><path d="M0 -30L26 -15L26 15L0 30L-26 15L-26 -15Z" fill="none" stroke="#ffffff" stroke-width="2"></path></g><g transform="translate(445 31)"><path d="M0 -29L25.1 -14.5L25.1 14.5L0 29L-25.1 14.5L-25.1 -14.5Z" fill="none" stroke="#ffffff" stroke-width="2"></path></g><g transform="translate(1969 979)"><path d="M0 -32L27.7 -16L27.7 16L0 32L-27.7 16L-27.7 -16Z" fill="none" stroke="#ffffff" stroke-width="2"></path></g><g transform="translate(1824 401)"><path d="M0 -35L30.3 -17.5L30.3 17.5L0 35L-30.3 17.5L-30.3 -17.5Z" fill="none" stroke="#ffffff" stroke-width="2"></path></g><g transform="translate(855 590)"><path d="M0 -33L28.6 -16.5L28.6 16.5L0 33L-28.6 16.5L-28.6 -16.5Z" fill="none" stroke="#ffffff" stroke-width="2"></path></g><g transform="translate(1174 999)"><path d="M0 -30L26 -15L26 15L0 30L-26 15L-26 -15Z" fill="none" stroke="#ffffff" stroke-width="2"></path></g><g transform="translate(485 101)"><path d="M0 -33L28.6 -16.5L28.6 16.5L0 33L-28.6 16.5L-28.6 -16.5Z" fill="none" stroke="#ffffff" stroke-width="2"></path></g><g transform="translate(309 559)"><path d="M0 -32L27.7 -16L27.7 16L0 32L-27.7 16L-27.7 -16Z" fill="none" stroke="#ffffff" stroke-width="2"></path></g><g transform="translate(1592 926)"><path d="M0 -28L24.2 -14L24.2 14L0 28L-24.2 14L-24.2 -14Z" fill="none" stroke="#ffffff" stroke-width="2"></path></g><g transform="translate(604 686)"><path d="M0 -34L29.4 -17L29.4 17L0 34L-29.4 17L-29.4 -17Z" fill="none" stroke="#ffffff" stroke-width="2"></path></g><g transform="translate(1902 891)"><path d="M0 -29L25.1 -14.5L25.1 14.5L0 29L-25.1 14.5L-25.1 -14.5Z" fill="none" stroke="#ffffff" stroke-width="2"></path></g><g transform="translate(523 841)"><path d="M0 -28L24.2 -14L24.2 14L0 28L-24.2 14L-24.2 -14Z" fill="none" stroke="#ffffff" stroke-width="2"></path></g><g transform="translate(1804 231)"><path d="M0 -30L26 -15L26 15L0 30L-26 15L-26 -15Z" fill="none" stroke="#ffffff" stroke-width="2"></path></g><g transform="translate(1942 587)"><path d="M0 -34L29.4 -17L29.4 17L0 34L-29.4 17L-29.4 -17Z" fill="none" stroke="#ffffff" stroke-width="2"></path></g><g transform="translate(1147 358)"><path d="M0 -30L26 -15L26 15L0 30L-26 15L-26 -15Z" fill="none" stroke="#ffffff" stroke-width="2"></path></g><g transform="translate(1440 403)"><path d="M0 -35L30.3 -17.5L30.3 17.5L0 35L-30.3 17.5L-30.3 -17.5Z" fill="none" stroke="#ffffff" stroke-width="2"></path></g><g transform="translate(597 781)"><path d="M0 -36L31.2 -18L31.2 18L0 36L-31.2 18L-31.2 -18Z" fill="none" stroke="#ffffff" stroke-width="2"></path></g><g transform="translate(26 486)"><path d="M0 -35L30.3 -17.5L30.3 17.5L0 35L-30.3 17.5L-30.3 -17.5Z" fill="none" stroke="#ffffff" stroke-width="2"></path></g><g transform="translate(991 806)"><path d="M0 -32L27.7 -16L27.7 16L0 32L-27.7 16L-27.7 -16Z" fill="none" stroke="#ffffff" stroke-width="2"></path></g><g transform="translate(1149 493)"><path d="M0 -31L26.8 -15.5L26.8 15.5L0 31L-26.8 15.5L-26.8 -15.5Z" fill="none" stroke="#ffffff" stroke-width="2"></path></g><g transform="translate(7 208)"><path d="M0 -29L25.1 -14.5L25.1 14.5L0 29L-25.1 14.5L-25.1 -14.5Z" fill="none" stroke="#ffffff" stroke-width="2"></path></g><g transform="translate(1632 322)"><path d="M0 -29L25.1 -14.5L25.1 14.5L0 29L-25.1 14.5L-25.1 -14.5Z" fill="none" stroke="#ffffff" stroke-width="2"></path></g><g transform="translate(8 902)"><path d="M0 -31L26.8 -15.5L26.8 15.5L0 31L-26.8 15.5L-26.8 -15.5Z" fill="none" stroke="#ffffff" stroke-width="2"></path></g><g transform="translate(1981 445)"><path d="M0 -34L29.4 -17L29.4 17L0 34L-29.4 17L-29.4 -17Z" fill="none" stroke="#ffffff" stroke-width="2"></path></g><g transform="translate(1410 6)"><path d="M0 -36L31.2 -18L31.2 18L0 36L-31.2 18L-31.2 -18Z" fill="none" stroke="#ffffff" stroke-width="2"></path></g><g transform="translate(718 973)"><path d="M0 -36L31.2 -18L31.2 18L0 36L-31.2 18L-31.2 -18Z" fill="none" stroke="#ffffff" stroke-width="2"></path></g><g transform="translate(1225 383)"><path d="M0 -32L27.7 -16L27.7 16L0 32L-27.7 16L-27.7 -16Z" fill="none" stroke="#ffffff" stroke-width="2"></path></g><g transform="translate(1050 991)"><path d="M0 -36L31.2 -18L31.2 18L0 36L-31.2 18L-31.2 -18Z" fill="none" stroke="#ffffff" stroke-width="2"></path></g><g transform="translate(1938 116)"><path d="M0 -34L29.4 -17L29.4 17L0 34L-29.4 17L-29.4 -17Z" fill="none" stroke="#ffffff" stroke-width="2"></path></g><g transform="translate(110 495)"><path d="M0 -30L26 -15L26 15L0 30L-26 15L-26 -15Z" fill="none" stroke="#ffffff" stroke-width="2"></path></g><g transform="translate(576 211)"><path d="M0 -36L31.2 -18L31.2 18L0 36L-31.2 18L-31.2 -18Z" fill="none" stroke="#ffffff" stroke-width="2"></path></g><g transform="translate(1940 746)"><path d="M0 -33L28.6 -16.5L28.6 16.5L0 33L-28.6 16.5L-28.6 -16.5Z" fill="none" stroke="#ffffff" stroke-width="2"></path></g><g transform="translate(1472 995)"><path d="M0 -31L26.8 -15.5L26.8 15.5L0 31L-26.8 15.5L-26.8 -15.5Z" fill="none" stroke="#ffffff" stroke-width="2"></path></g><g transform="translate(1123 856)"><path d="M0 -36L31.2 -18L31.2 18L0 36L-31.2 18L-31.2 -18Z" fill="none" stroke="#ffffff" stroke-width="2"></path></g><g transform="translate(1417 652)"><path d="M0 -36L31.2 -18L31.2 18L0 36L-31.2 18L-31.2 -18Z" fill="none" stroke="#ffffff" stroke-width="2"></path></g><g transform="translate(84 218)"><path d="M0 -28L24.2 -14L24.2 14L0 28L-24.2 14L-24.2 -14Z" fill="none" stroke="#ffffff" stroke-width="2"></path></g><g transform="translate(1667 982)"><path d="M0 -35L30.3 -17.5L30.3 17.5L0 35L-30.3 17.5L-30.3 -17.5Z" fill="none" stroke="#ffffff" stroke-width="2"></path></g><g transform="translate(804 785)"><path d="M0 -31L26.8 -15.5L26.8 15.5L0 31L-26.8 15.5L-26.8 -15.5Z" fill="none" stroke="#ffffff" stroke-width="2"></path></g><g transform="translate(720 446)"><path d="M0 -36L31.2 -18L31.2 18L0 36L-31.2 18L-31.2 -18Z" fill="none" stroke="#ffffff" stroke-width="2"></path></g><g transform="translate(498 996)"><path d="M0 -28L24.2 -14L24.2 14L0 28L-24.2 14L-24.2 -14Z" fill="none" stroke="#ffffff" stroke-width="2"></path></g><g transform="translate(1044 462)"><path d="M0 -33L28.6 -16.5L28.6 16.5L0 33L-28.6 16.5L-28.6 -16.5Z" fill="none" stroke="#ffffff" stroke-width="2"></path></g><g transform="translate(815 160)"><path d="M0 -33L28.6 -16.5L28.6 16.5L0 33L-28.6 16.5L-28.6 -16.5Z" fill="none" stroke="#ffffff" stroke-width="2"></path></g><g transform="translate(472 582)"><path d="M0 -31L26.8 -15.5L26.8 15.5L0 31L-26.8 15.5L-26.8 -15.5Z" fill="none" stroke="#ffffff" stroke-width="2"></path></g><g transform="translate(1948 823)"><path d="M0 -32L27.7 -16L27.7 16L0 32L-27.7 16L-27.7 -16Z" fill="none" stroke="#ffffff" stroke-width="2"></path></g><g transform="translate(1166 732)"><path d="M0 -34L29.4 -17L29.4 17L0 34L-29.4 17L-29.4 -17Z" fill="none" stroke="#ffffff" stroke-width="2"></path></g><g transform="translate(1264 182)"><path d="M0 -29L25.1 -14.5L25.1 14.5L0 29L-25.1 14.5L-25.1 -14.5Z" fill="none" stroke="#ffffff" stroke-width="2"></path></g><g transform="translate(1887 441)"><path d="M0 -28L24.2 -14L24.2 14L0 28L-24.2 14L-24.2 -14Z" fill="none" stroke="#ffffff" stroke-width="2"></path></g><g transform="translate(407 860)"><path d="M0 -30L26 -15L26 15L0 30L-26 15L-26 -15Z" fill="none" stroke="#ffffff" stroke-width="2"></path></g><g transform="translate(922 367)"><path d="M0 -36L31.2 -18L31.2 18L0 36L-31.2 18L-31.2 -18Z" fill="none" stroke="#ffffff" stroke-width="2"></path></g><g transform="translate(177 91)"><path d="M0 -32L27.7 -16L27.7 16L0 32L-27.7 16L-27.7 -16Z" fill="none" stroke="#ffffff" stroke-width="2"></path></g><g transform="translate(1045 18)"><path d="M0 -33L28.6 -16.5L28.6 16.5L0 33L-28.6 16.5L-28.6 -16.5Z" fill="none" stroke="#ffffff" stroke-width="2"></path></g><g transform="translate(1666 436)"><path d="M0 -33L28.6 -16.5L28.6 16.5L0 33L-28.6 16.5L-28.6 -16.5Z" fill="none" stroke="#ffffff" stroke-width="2"></path></g><g transform="translate(1419 182)"><path d="M0 -29L25.1 -14.5L25.1 14.5L0 29L-25.1 14.5L-25.1 -14.5Z" fill="none" stroke="#ffffff" stroke-width="2"></path></g><g transform="translate(886 1)"><path d="M0 -34L29.4 -17L29.4 17L0 34L-29.4 17L-29.4 -17Z" fill="none" stroke="#ffffff" stroke-width="2"></path></g><g transform="translate(427 238)"><path d="M0 -31L26.8 -15.5L26.8 15.5L0 31L-26.8 15.5L-26.8 -15.5Z" fill="none" stroke="#ffffff" stroke-width="2"></path></g><g transform="translate(31 5)"><path d="M0 -33L28.6 -16.5L28.6 16.5L0 33L-28.6 16.5L-28.6 -16.5Z" fill="none" stroke="#ffffff" stroke-width="2"></path></g><g transform="translate(170 995)"><path d="M0 -36L31.2 -18L31.2 18L0 36L-31.2 18L-31.2 -18Z" fill="none" stroke="#ffffff" stroke-width="2"></path></g><g transform="translate(1286 256)"><path d="M0 -29L25.1 -14.5L25.1 14.5L0 29L-25.1 14.5L-25.1 -14.5Z" fill="none" stroke="#ffffff" stroke-width="2"></path></g><g transform="translate(1418 479)"><path d="M0 -28L24.2 -14L24.2 14L0 28L-24.2 14L-24.2 -14Z" fill="none" stroke="#ffffff" stroke-width="2"></path></g><g transform="translate(1331 998)"><path d="M0 -33L28.6 -16.5L28.6 16.5L0 33L-28.6 16.5L-28.6 -16.5Z" fill="none" stroke="#ffffff" stroke-width="2"></path></g><g transform="translate(250 999)"><path d="M0 -31L26.8 -15.5L26.8 15.5L0 31L-26.8 15.5L-26.8 -15.5Z" fill="none" stroke="#ffffff" stroke-width="2"></path></g><g transform="translate(1756 843)"><path d="M0 -32L27.7 -16L27.7 16L0 32L-27.7 16L-27.7 -16Z" fill="none" stroke="#ffffff" stroke-width="2"></path></g><g transform="translate(1331 119)"><path d="M0 -36L31.2 -18L31.2 18L0 36L-31.2 18L-31.2 -18Z" stroke="#ffffff" fill="none" stroke-width="2"></path></g><g transform="translate(773 390)"><path d="M0 -28L24.2 -14L24.2 14L0 28L-24.2 14L-24.2 -14Z" stroke="#ffffff" fill="none" stroke-width="2"></path></g><g transform="translate(1694 189)"><path d="M0 -30L26 -15L26 15L0 30L-26 15L-26 -15Z" stroke="#ffffff" fill="none" stroke-width="2"></path></g><g transform="translate(221 673)"><path d="M0 -28L24.2 -14L24.2 14L0 28L-24.2 14L-24.2 -14Z" stroke="#ffffff" fill="none" stroke-width="2"></path></g><g transform="translate(374 5)"><path d="M0 -35L30.3 -17.5L30.3 17.5L0 35L-30.3 17.5L-30.3 -17.5Z" stroke="#ffffff" fill="none" stroke-width="2"></path></g></g></svg>