<svg id="visual" viewBox="0 0 1920 1000" width="1920" height="1000" xmlns="http://www.w3.org/2000/svg" xmlns:xlink="http://www.w3.org/1999/xlink" version="1.1"><rect x="0" y="0" width="1920" height="1000" fill="none"></rect><defs><linearGradient id="grad1_0" x1="47.9%" y1="0%" x2="100%" y2="100%"><stop offset="11.600000000000001%" stop-color="#001220" stop-opacity="1"></stop><stop offset="88.4%" stop-color="#001220" stop-opacity="1"></stop></linearGradient></defs><defs><linearGradient id="grad2_0" x1="0%" y1="0%" x2="52.1%" y2="100%"><stop offset="11.600000000000001%" stop-color="#001220" stop-opacity="1"></stop><stop offset="88.4%" stop-color="#001220" stop-opacity="1"></stop></linearGradient></defs><g transform="translate(1920, 0)"><path d="M0 300C-13.5 271.8 -27.1 243.5 -48.4 243.2C-69.7 243 -98.7 270.6 -106 255.9C-113.3 241.2 -98.9 184.1 -117.8 176.3C-136.7 168.4 -188.9 209.8 -212.1 212.1C-235.4 214.4 -229.8 177.6 -224.5 150C-219.2 122.4 -214.3 104.2 -214.3 88.8C-214.4 73.4 -219.3 60.9 -234.4 46.6C-249.5 32.3 -274.8 16.2 -300 0L0 0Z" fill="#FBAE3C"></path></g><g transform="translate(0, 1000)"><path d="M0 -300C21.7 -305.2 43.4 -310.4 58.5 -294.2C73.6 -278.1 82.1 -240.5 90.7 -219C99.3 -197.4 108 -191.9 128.9 -192.9C149.8 -193.9 182.9 -201.3 185.3 -185.3C187.6 -169.2 159.2 -129.7 176.3 -117.8C193.3 -105.9 255.9 -121.7 276.2 -114.4C296.6 -107.2 274.8 -76.9 271.7 -54C268.6 -31.1 284.3 -15.6 300 0L0 0Z" fill="#FBAE3C"></path></g></svg>