<svg id="visual" viewBox="0 0 900 600" width="900" height="600" xmlns="http://www.w3.org/2000/svg"
    xmlns:xlink="http://www.w3.org/1999/xlink" version="1.1">
    <path
        d="M0 538L18.8 526.2C37.7 514.3 75.3 490.7 112.8 489.8C150.3 489 187.7 511 225.2 509.3C262.7 507.7 300.3 482.3 337.8 478.5C375.3 474.7 412.7 492.3 450.2 498.8C487.7 505.3 525.3 500.7 562.8 491.2C600.3 481.7 637.7 467.3 675.2 461.3C712.7 455.3 750.3 457.7 787.8 460.8C825.3 464 862.7 468 881.3 470L900 472L900 601L881.3 601C862.7 601 825.3 601 787.8 601C750.3 601 712.7 601 675.2 601C637.7 601 600.3 601 562.8 601C525.3 601 487.7 601 450.2 601C412.7 601 375.3 601 337.8 601C300.3 601 262.7 601 225.2 601C187.7 601 150.3 601 112.8 601C75.3 601 37.7 601 18.8 601L0 601Z"
        fill="#02572e"></path>
    <path
        d="M0 521L18.8 509.7C37.7 498.3 75.3 475.7 112.8 477C150.3 478.3 187.7 503.7 225.2 512.8C262.7 522 300.3 515 337.8 515.7C375.3 516.3 412.7 524.7 450.2 514.7C487.7 504.7 525.3 476.3 562.8 475.7C600.3 475 637.7 502 675.2 517.7C712.7 533.3 750.3 537.7 787.8 525.5C825.3 513.3 862.7 484.7 881.3 470.3L900 456L900 601L881.3 601C862.7 601 825.3 601 787.8 601C750.3 601 712.7 601 675.2 601C637.7 601 600.3 601 562.8 601C525.3 601 487.7 601 450.2 601C412.7 601 375.3 601 337.8 601C300.3 601 262.7 601 225.2 601C187.7 601 150.3 601 112.8 601C75.3 601 37.7 601 18.8 601L0 601Z"
        fill="#026235"></path>
    <path
        d="M0 503L18.8 511.8C37.7 520.7 75.3 538.3 112.8 539.7C150.3 541 187.7 526 225.2 524.7C262.7 523.3 300.3 535.7 337.8 529.7C375.3 523.7 412.7 499.3 450.2 495C487.7 490.7 525.3 506.3 562.8 505.8C600.3 505.3 637.7 488.7 675.2 491.2C712.7 493.7 750.3 515.3 787.8 521.3C825.3 527.3 862.7 517.7 881.3 512.8L900 508L900 601L881.3 601C862.7 601 825.3 601 787.8 601C750.3 601 712.7 601 675.2 601C637.7 601 600.3 601 562.8 601C525.3 601 487.7 601 450.2 601C412.7 601 375.3 601 337.8 601C300.3 601 262.7 601 225.2 601C187.7 601 150.3 601 112.8 601C75.3 601 37.7 601 18.8 601L0 601Z"
        fill="#036e3b"></path>
    <path
        d="M0 531L18.8 531.3C37.7 531.7 75.3 532.3 112.8 531.5C150.3 530.7 187.7 528.3 225.2 523.3C262.7 518.3 300.3 510.7 337.8 516.8C375.3 523 412.7 543 450.2 548.2C487.7 553.3 525.3 543.7 562.8 533.5C600.3 523.3 637.7 512.7 675.2 514.8C712.7 517 750.3 532 787.8 531.3C825.3 530.7 862.7 514.3 881.3 506.2L900 498L900 601L881.3 601C862.7 601 825.3 601 787.8 601C750.3 601 712.7 601 675.2 601C637.7 601 600.3 601 562.8 601C525.3 601 487.7 601 450.2 601C412.7 601 375.3 601 337.8 601C300.3 601 262.7 601 225.2 601C187.7 601 150.3 601 112.8 601C75.3 601 37.7 601 18.8 601L0 601Z"
        fill="#037a42"></path>
    <path
        d="M0 546L18.8 546.8C37.7 547.7 75.3 549.3 112.8 551.5C150.3 553.7 187.7 556.3 225.2 555C262.7 553.7 300.3 548.3 337.8 547.8C375.3 547.3 412.7 551.7 450.2 556.5C487.7 561.3 525.3 566.7 562.8 567.7C600.3 568.7 637.7 565.3 675.2 563.5C712.7 561.7 750.3 561.3 787.8 560.5C825.3 559.7 862.7 558.3 881.3 557.7L900 557L900 601L881.3 601C862.7 601 825.3 601 787.8 601C750.3 601 712.7 601 675.2 601C637.7 601 600.3 601 562.8 601C525.3 601 487.7 601 450.2 601C412.7 601 375.3 601 337.8 601C300.3 601 262.7 601 225.2 601C187.7 601 150.3 601 112.8 601C75.3 601 37.7 601 18.8 601L0 601Z"
        fill="#048649"></path>
    <path
        d="M0 554L18.8 558.3C37.7 562.7 75.3 571.3 112.8 569.2C150.3 567 187.7 554 225.2 547.5C262.7 541 300.3 541 337.8 547.3C375.3 553.7 412.7 566.3 450.2 571.8C487.7 577.3 525.3 575.7 562.8 576.3C600.3 577 637.7 580 675.2 582C712.7 584 750.3 585 787.8 579C825.3 573 862.7 560 881.3 553.5L900 547L900 601L881.3 601C862.7 601 825.3 601 787.8 601C750.3 601 712.7 601 675.2 601C637.7 601 600.3 601 562.8 601C525.3 601 487.7 601 450.2 601C412.7 601 375.3 601 337.8 601C300.3 601 262.7 601 225.2 601C187.7 601 150.3 601 112.8 601C75.3 601 37.7 601 18.8 601L0 601Z"
        fill="#05924f"></path>
    <path
        d="M0 574L18.8 577.3C37.7 580.7 75.3 587.3 112.8 589.7C150.3 592 187.7 590 225.2 590.5C262.7 591 300.3 594 337.8 594.8C375.3 595.7 412.7 594.3 450.2 588.7C487.7 583 525.3 573 562.8 568.7C600.3 564.3 637.7 565.7 675.2 566.2C712.7 566.7 750.3 566.3 787.8 565.3C825.3 564.3 862.7 562.7 881.3 561.8L900 561L900 601L881.3 601C862.7 601 825.3 601 787.8 601C750.3 601 712.7 601 675.2 601C637.7 601 600.3 601 562.8 601C525.3 601 487.7 601 450.2 601C412.7 601 375.3 601 337.8 601C300.3 601 262.7 601 225.2 601C187.7 601 150.3 601 112.8 601C75.3 601 37.7 601 18.8 601L0 601Z"
        fill="#079f56"></path>
</svg>
