<svg width="1377" height="754" viewBox="0 0 1377 754" fill="none" xmlns="http://www.w3.org/2000/svg">
<path d="M21.0001 1.49999C0.500059 1.49999 1.00011 26 1.00011 26L1.00005 240.75L1 453.5V489C3.06612 499.743 5.96132 503.707 16 505L537.5 506C550.706 507.064 557.203 513.612 557.5 525.5V732.5C557.97 748.158 560.791 753.128 578 753H1360C1369.56 751.235 1373.31 747.919 1376.5 737V85.5C1376.5 85.5 1375.5 66.5 1360.5 66.5C1345.5 66.5 245 65.5 245 65.5C221 67 224 45.5 224 19.5C224 12.5 217 2 204 1C191 4.76837e-07 41.5001 1.49999 21.0001 1.49999Z" fill="black" stroke="black"/>
</svg>
